<svg width="721" height="719" viewBox="0 0 721 719" fill="none" xmlns="http://www.w3.org/2000/svg">
<path opacity="0.0714286" d="M541.63 228.919C558.619 237.815 568.682 255.97 567.224 275.091L549.644 505.639C547.96 527.726 531.38 545.793 509.519 549.363L299.969 583.581C279.97 586.846 260.075 577.203 250.251 559.48L132.485 347.025C122.661 329.302 125.025 307.319 138.393 292.09L278.456 132.514C293.068 115.866 317.176 111.38 336.799 121.656L541.63 228.919Z" stroke="url(#paint0_linear_9_107425)" stroke-width="4"/>
<path opacity="0.142857" d="M578.254 310.072C590.416 324.899 592.585 345.542 583.772 362.574L477.507 567.925C467.327 587.598 445.006 597.75 423.488 592.495L217.225 542.115C197.541 537.307 182.995 520.656 180.877 500.504L155.486 258.923C153.368 238.771 164.134 219.459 182.389 210.663L373.669 118.5C393.624 108.885 417.568 114.175 431.616 131.301L578.254 310.072Z" stroke="url(#paint1_linear_9_107425)" stroke-width="4"/>
<path opacity="0.214286" d="M580.256 399.085C585.658 417.485 579.589 437.335 564.822 449.569L386.768 597.076C369.71 611.207 345.196 611.831 327.442 598.585L157.262 471.617C141.02 459.5 134.137 438.489 140.062 419.111L211.082 186.814C217.006 167.436 234.462 153.866 254.703 152.902L466.788 142.805C488.914 141.751 508.888 155.976 515.127 177.23L580.256 399.085Z" stroke="url(#paint2_linear_9_107425)" stroke-width="4"/>
<path opacity="0.285714" d="M547.32 481.804C545.102 500.852 531.76 516.753 513.386 522.244L291.851 588.454C270.628 594.796 247.82 585.792 236.652 566.662L129.611 383.293C119.395 365.793 121.269 343.763 134.293 328.24L290.434 142.16C303.459 126.637 324.829 120.966 343.837 127.988L543.008 201.561C563.787 209.237 576.615 230.135 574.054 252.138L547.32 481.804Z" stroke="url(#paint3_linear_9_107425)" stroke-width="4"/>
<path opacity="0.357143" d="M484.681 545.077C475.197 561.745 456.702 571.168 437.644 569.044L207.849 543.429C185.835 540.975 168.358 523.775 165.553 501.802L138.669 291.185C136.103 271.085 146.435 251.538 164.49 242.339L380.926 132.059C398.98 122.86 420.868 125.99 435.621 139.88L590.212 285.428C606.339 300.612 609.982 324.861 599.027 344.114L484.681 545.077Z" stroke="url(#paint4_linear_9_107425)" stroke-width="4"/>
<path opacity="0.428571" d="M402.298 578.846C387.056 590.483 366.349 591.931 349.636 582.528L148.118 469.162C128.812 458.301 119.445 435.64 125.449 414.318L182.996 209.939C188.488 190.434 205.637 176.479 225.85 175.065L468.17 158.121C488.384 156.707 507.309 168.14 515.462 186.691L600.893 381.071C609.806 401.35 603.684 425.095 586.078 438.537L402.298 578.846Z" stroke="url(#paint5_linear_9_107425)" stroke-width="4"/>
<path opacity="0.5" d="M313.27 577.741C294.692 582.497 275.066 575.739 263.355 560.554L122.153 377.46C108.625 359.919 108.858 335.399 122.715 318.118L255.545 152.472C268.221 136.664 289.459 130.518 308.619 137.115L538.296 216.199C557.455 222.796 570.408 240.715 570.665 260.977L573.354 473.286C573.635 495.435 558.722 514.9 537.263 520.394L313.27 577.741Z" stroke="url(#paint6_linear_9_107425)" stroke-width="4"/>
<path opacity="0.571429" d="M231.751 541.938C212.792 539.057 197.366 525.168 192.52 506.614L134.082 282.903C128.484 261.471 138.279 238.991 157.787 228.498L344.78 127.921C362.626 118.323 384.577 120.964 399.636 134.522L580.154 297.062C595.212 310.621 600.134 332.176 592.454 350.927L511.974 547.409C503.578 567.908 482.244 579.998 460.345 576.671L231.751 541.938Z" stroke="url(#paint7_linear_9_107425)" stroke-width="4"/>
<path opacity="0.642857" d="M170.702 477.128C154.375 467.068 145.603 448.256 148.391 429.283L182.01 200.523C185.231 178.607 203.031 161.741 225.088 159.705L436.515 140.188C456.692 138.325 475.867 149.333 484.43 167.698L587.089 387.85C595.653 406.215 591.761 427.98 577.364 442.239L426.51 591.656C410.772 607.244 386.411 610.038 367.552 598.419L170.702 477.128Z" stroke="url(#paint8_linear_9_107425)" stroke-width="4"/>
<path opacity="0.714286" d="M139.829 393.618C128.731 377.979 128.006 357.235 137.986 340.859L258.317 143.421C269.845 124.506 292.819 115.935 313.919 122.679L516.164 187.325C535.465 193.494 548.814 211.119 549.521 231.37L557.999 474.133C558.706 494.384 546.619 512.898 527.795 520.399L330.552 598.995C309.974 607.194 286.458 600.247 273.639 582.182L139.829 393.618Z" stroke="url(#paint9_linear_9_107425)" stroke-width="4"/>
<path opacity="0.785714" d="M144.04 304.683C139.935 285.951 147.374 266.572 162.959 255.398L350.869 120.672C368.871 107.765 393.368 108.852 410.155 123.305L571.064 261.834C586.421 275.055 591.821 296.495 584.56 315.412L497.508 542.189C490.246 561.107 471.887 573.426 451.628 572.976L239.355 568.254C217.209 567.761 198.277 552.178 193.535 530.541L144.04 304.683Z" stroke="url(#paint10_linear_9_107425)" stroke-width="4"/>
<path opacity="0.857143" d="M182.667 224.463C186.207 205.616 200.626 190.684 219.338 186.488L444.953 135.894C466.567 131.047 488.691 141.62 498.497 161.483L592.487 351.872C601.457 370.042 598.051 391.887 583.975 406.464L415.235 581.199C401.159 595.776 379.445 599.942 360.973 591.612L167.419 504.324C147.226 495.217 135.888 473.475 139.977 451.705L182.667 224.463Z" stroke="url(#paint11_linear_9_107425)" stroke-width="4"/>
<path opacity="0.928571" d="M249.567 165.712C260.19 149.747 279.297 141.637 298.161 145.085L525.609 186.668C547.399 190.651 563.633 209.029 564.899 231.144L577.025 443.123C578.183 463.353 566.512 482.131 547.86 490.049L324.259 584.962C305.606 592.879 283.99 588.23 270.242 573.345L126.181 417.368C111.152 401.096 109.21 376.652 121.48 358.21L249.567 165.712Z" stroke="url(#paint12_linear_9_107425)" stroke-width="4"/>
<path d="M334.104 137.772C350.121 127.227 370.879 127.227 386.896 137.772L580.015 264.92C598.516 277.101 606.279 300.361 598.803 321.212L527.139 521.078C520.3 540.152 502.219 552.878 481.956 552.878H239.045C218.782 552.878 200.701 540.152 193.861 521.078L122.197 321.212C114.721 300.361 122.484 277.101 140.985 264.92L334.104 137.772Z" stroke="url(#paint13_linear_9_107425)" stroke-width="4"/>
<defs>
<linearGradient id="paint0_linear_9_107425" x1="284.675" y1="223.74" x2="438.359" y2="500.994" gradientUnits="userSpaceOnUse">
<stop stop-color="#FF1CF7"/>
<stop offset="1" stop-color="#00F0FF"/>
</linearGradient>
<linearGradient id="paint1_linear_9_107425" x1="343.749" y1="204.904" x2="376.884" y2="520.167" gradientUnits="userSpaceOnUse">
<stop stop-color="#FF1CF7"/>
<stop offset="1" stop-color="#00F0FF"/>
</linearGradient>
<linearGradient id="paint2_linear_9_107425" x1="405.486" y1="210.649" x2="312.804" y2="513.797" gradientUnits="userSpaceOnUse">
<stop stop-color="#FF1CF7"/>
<stop offset="1" stop-color="#00F0FF"/>
</linearGradient>
<linearGradient id="paint3_linear_9_107425" x1="460.07" y1="240.059" x2="256.307" y2="482.895" gradientUnits="userSpaceOnUse">
<stop stop-color="#FF1CF7"/>
<stop offset="1" stop-color="#00F0FF"/>
</linearGradient>
<linearGradient id="paint4_linear_9_107425" x1="498.824" y1="288.459" x2="216.375" y2="432.374" gradientUnits="userSpaceOnUse">
<stop stop-color="#FF1CF7"/>
<stop offset="1" stop-color="#00F0FF"/>
</linearGradient>
<linearGradient id="paint5_linear_9_107425" x1="515.586" y1="348.154" x2="199.359" y2="370.267" gradientUnits="userSpaceOnUse">
<stop stop-color="#FF1CF7"/>
<stop offset="1" stop-color="#00F0FF"/>
</linearGradient>
<linearGradient id="paint6_linear_9_107425" x1="507.691" y1="409.653" x2="207.962" y2="306.448" gradientUnits="userSpaceOnUse">
<stop stop-color="#FF1CF7"/>
<stop offset="1" stop-color="#00F0FF"/>
</linearGradient>
<linearGradient id="paint7_linear_9_107425" x1="476.394" y1="463.178" x2="240.817" y2="251.064" gradientUnits="userSpaceOnUse">
<stop stop-color="#FF1CF7"/>
<stop offset="1" stop-color="#00F0FF"/>
</linearGradient>
<linearGradient id="paint8_linear_9_107425" x1="426.67" y1="500.219" x2="292.7" y2="212.919" gradientUnits="userSpaceOnUse">
<stop stop-color="#FF1CF7"/>
<stop offset="1" stop-color="#00F0FF"/>
</linearGradient>
<linearGradient id="paint9_linear_9_107425" x1="366.427" y1="514.889" x2="355.363" y2="198.082" gradientUnits="userSpaceOnUse">
<stop stop-color="#FF1CF7"/>
<stop offset="1" stop-color="#00F0FF"/>
</linearGradient>
<linearGradient id="paint10_linear_9_107425" x1="305.241" y1="504.852" x2="418.843" y2="208.907" gradientUnits="userSpaceOnUse">
<stop stop-color="#FF1CF7"/>
<stop offset="1" stop-color="#00F0FF"/>
</linearGradient>
<linearGradient id="paint11_linear_9_107425" x1="252.84" y1="471.705" x2="473.047" y2="243.674" gradientUnits="userSpaceOnUse">
<stop stop-color="#FF1CF7"/>
<stop offset="1" stop-color="#00F0FF"/>
</linearGradient>
<linearGradient id="paint12_linear_9_107425" x1="217.557" y1="420.719" x2="509.357" y2="296.857" gradientUnits="userSpaceOnUse">
<stop stop-color="#FF1CF7"/>
<stop offset="1" stop-color="#00F0FF"/>
</linearGradient>
<linearGradient id="paint13_linear_9_107425" x1="205" y1="360" x2="522" y2="360" gradientUnits="userSpaceOnUse">
<stop stop-color="#FF1CF7"/>
<stop offset="1" stop-color="#00F0FF"/>
</linearGradient>
</defs>
</svg>
