<svg xmlns="http://www.w3.org/2000/svg" fill="none" viewBox="0 0 687 686">
  <path stroke="url(#a)" d="M31.16 392.48c-2.82-17.79 3.16-36.15 16.47-54.14 13.32-18 33.95-35.6 60.36-51.83 52.81-32.45 128.65-59.38 214.98-73.05 86.34-13.68 166.78-11.5 227.04 3.04 30.13 7.28 55.19 17.64 73.41 30.64 18.23 13 29.59 28.62 32.4 46.4 2.82 17.78-3.16 36.14-16.47 54.14-13.32 18-33.95 35.6-60.36 51.82-52.81 32.46-128.64 59.38-214.98 73.06-86.33 13.67-166.78 11.5-227.04-3.05-30.13-7.27-55.19-17.63-73.41-30.64-18.23-13-29.58-28.61-32.4-46.4Z"/>
  <path stroke="url(#b)" d="M30.34 387.02c-2.5-17.83 3.8-36.08 17.42-53.84 13.63-17.77 34.56-35 61.25-50.77 53.37-31.53 129.66-57.13 216.23-69.3 86.56-12.16 166.95-8.58 226.95 7.02 30 7.8 54.87 18.6 72.86 31.91 18 13.32 29.08 29.13 31.59 46.96 2.5 17.83-3.8 36.08-17.42 53.84-13.63 17.76-34.56 35-61.25 50.77-53.37 31.53-129.66 57.12-216.22 69.29-86.56 12.16-166.96 8.59-226.96-7.01-30-7.8-54.87-18.6-72.86-31.92-18-13.31-29.08-29.12-31.59-46.95Z"/>
  <path stroke="url(#c)" d="M29.62 381.55c-2.2-17.88 4.42-36.01 18.36-53.53 13.93-17.52 35.16-34.4 62.12-49.7 53.92-30.59 130.65-54.85 217.4-65.5 86.77-10.66 167.08-5.68 226.8 10.97 29.86 8.32 54.54 19.55 72.3 33.18 17.76 13.63 28.56 29.63 30.76 47.5 2.2 17.87-4.42 36.01-18.36 53.53-13.93 17.52-35.16 34.39-62.12 49.69-53.92 30.6-130.64 54.85-217.4 65.5-86.76 10.66-167.08 5.68-226.8-10.96-29.86-8.32-54.54-19.55-72.3-33.18-17.76-13.63-28.56-29.63-30.76-47.5Z"/>
  <path stroke="url(#d)" d="M29 376.06c-1.88-17.9 5.05-35.93 19.28-53.2 14.24-17.28 35.77-33.77 62.99-48.6 54.44-29.64 131.58-52.56 218.51-61.7 86.93-9.14 167.15-2.76 226.57 14.93 29.7 8.84 54.19 20.5 71.7 34.44 17.53 13.93 28.05 30.12 29.93 48.02 1.88 17.9-5.05 35.93-19.28 53.2-14.24 17.28-35.76 33.78-62.99 48.6-54.44 29.65-131.58 52.57-218.5 61.7-86.94 9.14-167.16 2.76-226.58-14.92-29.7-8.84-54.19-20.5-71.7-34.44C41.4 410.15 30.87 393.97 29 376.06Z"/>
  <path stroke="url(#e)" d="M28.47 370.57c-1.57-17.94 5.67-35.83 20.21-52.86 14.54-17.02 36.35-33.14 63.82-47.49 54.95-28.7 132.48-50.26 219.56-57.88 87.08-7.62 167.17.16 226.27 18.88 29.55 9.36 53.83 21.44 71.1 35.68 17.27 14.24 27.51 30.61 29.08 48.55 1.57 17.93-5.67 35.83-20.2 52.85-14.55 17.03-36.35 33.15-63.83 47.5-54.95 28.69-132.48 50.26-219.56 57.88-87.08 7.61-167.17-.17-226.27-18.88-29.55-9.36-53.83-21.44-71.1-35.69-17.27-14.24-27.51-30.6-29.08-48.54Z"/>
  <path stroke="url(#f)" d="M28.04 365.07c-1.26-17.96 6.3-35.73 21.13-52.5C64 295.8 86.09 280.07 113.8 266.2c55.44-27.73 133.33-47.94 220.53-54.04 87.2-6.1 167.15 3.08 225.9 22.82 29.4 9.88 53.45 22.38 70.47 36.92 17.02 14.54 26.98 31.09 28.23 49.05 1.26 17.96-6.3 35.73-21.13 52.5-14.83 16.76-36.91 32.5-64.64 46.36-55.44 27.74-133.33 47.95-220.53 54.05-87.2 6.1-167.15-3.08-225.9-22.83-29.39-9.87-53.45-22.38-70.47-36.92-17.02-14.54-26.98-31.08-28.23-49.04Z"/>
  <path stroke="url(#g)" d="M27.7 359.56c-.94-17.98 6.92-35.62 22.04-52.12 15.13-16.5 37.48-31.86 65.44-45.24 55.92-26.75 134.15-45.6 221.45-50.18 87.29-4.57 167.06 6 225.47 26.76 29.2 10.39 53.04 23.31 69.81 38.15 16.76 14.83 26.43 31.55 27.37 49.53.94 17.98-6.92 35.61-22.04 52.12-15.13 16.5-37.48 31.85-65.44 45.23-55.92 26.76-134.15 45.61-221.44 50.19-87.3 4.57-167.07-6-225.48-26.77-29.2-10.38-53.04-23.3-69.81-38.14-16.76-14.84-26.43-31.55-27.37-49.53Z"/>
  <path stroke="url(#h)" d="M27.46 354.04c-.63-17.99 7.54-35.48 22.95-51.72 15.4-16.24 38.03-31.2 66.22-44.09 56.37-25.78 134.93-43.26 222.28-46.31 87.36-3.05 166.94 8.91 224.98 30.7 29.02 10.89 52.63 24.23 69.13 39.35 16.5 15.13 25.87 32 26.5 50 .63 18-7.54 35.49-22.95 51.73-15.4 16.24-38.03 31.2-66.22 44.08-56.37 25.78-134.92 43.26-222.28 46.31-87.36 3.06-166.94-8.9-224.98-30.69-29.02-10.9-52.63-24.23-69.13-39.36-16.5-15.12-25.87-32-26.5-50Z"/>
  <path stroke="url(#i)" d="M27.31 348.53c-.31-18 8.16-35.35 23.85-51.32 15.7-15.97 38.57-30.53 66.98-42.92 56.82-24.8 135.66-40.9 223.06-42.43 87.4-1.53 166.76 11.82 224.4 34.61 28.83 11.4 52.2 25.15 68.44 40.56 16.24 15.41 25.31 32.46 25.63 50.46.31 18-8.16 35.35-23.85 51.32-15.7 15.97-38.57 30.52-66.98 42.92-56.82 24.79-135.66 40.9-223.06 42.42-87.4 1.53-166.76-11.82-224.4-34.61-28.83-11.4-52.2-25.15-68.44-40.56-16.24-15.4-25.31-32.45-25.63-50.45Z"/>
  <path stroke="url(#j)" d="M27.27 343c0-18 8.77-35.2 24.74-50.89 15.96-15.69 39.1-29.85 67.71-41.74 57.25-23.8 136.36-38.53 223.77-38.53s166.52 14.73 223.77 38.53c28.62 11.9 51.75 26.05 67.71 41.74 15.97 15.7 24.75 32.9 24.75 50.9s-8.78 35.2-24.75 50.9c-15.96 15.69-39.1 29.84-67.71 41.74-57.25 23.8-136.36 38.52-223.77 38.52s-166.52-14.73-223.77-38.52c-28.62-11.9-51.75-26.05-67.71-41.75-15.97-15.69-24.74-32.89-24.74-50.9Z"/>
  <path stroke="url(#k)" d="M27.31 337.49c.32-18 9.4-35.05 25.63-50.45 16.24-15.42 39.61-29.17 68.44-40.56 57.64-22.8 137-36.14 224.4-34.62 87.4 1.53 166.24 17.63 223.06 42.43 28.4 12.4 51.29 26.95 66.98 42.92 15.69 15.97 24.16 33.31 23.85 51.32-.32 18-9.4 35.04-25.63 50.45-16.24 15.41-39.6 29.16-68.43 40.56-57.65 22.8-137.01 36.14-224.4 34.61-87.4-1.52-166.25-17.63-223.07-42.42-28.4-12.4-51.29-26.95-66.98-42.92-15.69-15.97-24.16-33.32-23.85-51.32Z"/>
  <path stroke="url(#l)" d="M27.46 331.97c.63-18 10-34.87 26.5-50 16.5-15.12 40.11-28.46 69.13-39.36 58.04-21.78 137.62-33.74 224.98-30.69 87.36 3.05 165.9 20.53 222.28 46.31 28.2 12.9 50.81 27.85 66.22 44.09 15.41 16.24 23.58 33.73 22.95 51.72-.63 18-10 34.88-26.5 50-16.5 15.13-40.11 28.47-69.13 39.36-58.04 21.79-137.62 33.75-224.98 30.7-87.36-3.06-165.9-20.54-222.28-46.32-28.2-12.89-50.81-27.84-66.22-44.08-15.4-16.24-23.58-33.74-22.95-51.73Z"/>
  <path stroke="url(#m)" d="M27.7 326.46c.94-17.98 10.6-34.7 27.37-49.53 16.77-14.84 40.6-27.76 69.81-38.15 58.4-20.77 138.18-31.34 225.48-26.76 87.29 4.57 165.52 23.42 221.44 50.18 27.96 13.38 50.32 28.73 65.44 45.24 15.12 16.5 22.98 34.14 22.04 52.12-.94 17.98-10.6 34.7-27.37 49.53-16.76 14.83-40.6 27.76-69.8 38.14C503.68 468 423.9 478.57 336.62 474c-87.3-4.57-165.53-23.42-221.45-50.18-27.96-13.38-50.31-28.73-65.44-45.23-15.12-16.5-22.98-34.14-22.04-52.12Z"/>
  <path stroke="url(#n)" d="M28.04 320.95c1.25-17.96 11.2-34.5 28.23-49.05 17.02-14.54 41.08-27.04 70.46-36.92 58.76-19.74 138.71-28.92 225.91-22.82 87.2 6.1 165.1 26.31 220.53 54.04 27.73 13.87 49.81 29.6 64.65 46.37 14.83 16.77 22.38 34.54 21.12 52.5-1.25 17.96-11.2 34.5-28.23 49.04-17.02 14.54-41.08 27.05-70.46 36.92-58.76 19.75-138.71 28.92-225.9 22.83-87.2-6.1-165.1-26.32-220.54-54.05-27.72-13.86-49.81-29.6-64.64-46.37-14.83-16.76-22.39-34.53-21.13-52.5Z"/>
  <path stroke="url(#o)" d="M28.47 315.45c1.57-17.94 11.81-34.3 29.08-48.55 17.28-14.24 41.55-26.32 71.1-35.68 59.1-18.72 139.2-26.5 226.27-18.88 87.08 7.62 164.61 29.19 219.56 57.88 27.48 14.35 49.28 30.47 63.82 47.5 14.54 17.01 21.78 34.91 20.21 52.85-1.57 17.93-11.8 34.3-29.08 48.54-17.27 14.24-41.55 26.33-71.1 35.69-59.1 18.71-139.2 26.5-226.27 18.88-87.08-7.62-164.6-29.2-219.56-57.89-27.47-14.35-49.28-30.46-63.82-47.49-14.54-17.02-21.78-34.92-20.21-52.85Z"/>
  <path stroke="url(#p)" d="M29 309.95c1.88-17.9 12.4-34.09 29.92-48.03 17.52-13.93 42-25.6 71.71-34.44 59.42-17.68 139.64-24.06 226.57-14.92 86.93 9.14 164.07 32.06 218.52 61.7 27.22 14.83 48.74 31.32 62.98 48.6 14.23 17.27 21.16 35.3 19.28 53.2-1.88 17.9-12.4 34.1-29.92 48.03-17.52 13.94-42 25.6-71.71 34.44-59.42 17.68-139.64 24.06-226.57 14.93-86.93-9.14-164.07-32.06-218.51-61.7-27.22-14.83-48.75-31.33-62.99-48.6-14.23-17.28-21.16-35.3-19.28-53.2Z"/>
  <path stroke="url(#q)" d="M29.62 304.47c2.2-17.87 13-33.87 30.76-47.5 17.76-13.63 42.44-24.86 72.3-33.18 59.72-16.65 140.04-21.63 226.8-10.97 86.76 10.65 163.48 34.91 217.4 65.5 26.96 15.3 48.19 32.17 62.12 49.7 13.94 17.52 20.55 35.66 18.36 53.53-2.2 17.87-13 33.87-30.76 47.5-17.76 13.63-42.44 24.86-72.3 33.18-59.72 16.64-140.03 21.62-226.8 10.97-86.75-10.66-163.48-34.92-217.4-65.51-26.96-15.3-48.19-32.17-62.12-49.7-13.94-17.51-20.55-35.65-18.36-53.52Z"/>
  <path stroke="url(#r)" d="M30.34 299c2.51-17.83 13.6-33.64 31.59-46.96 18-13.32 42.87-24.11 72.86-31.91 60-15.6 140.4-19.18 226.96-7.01 86.56 12.16 162.85 37.76 216.22 69.3 26.69 15.76 47.62 33 61.25 50.76 13.63 17.76 19.92 36 17.42 53.84-2.5 17.83-13.6 33.64-31.59 46.95-17.99 13.32-42.87 24.12-72.86 31.92-60 15.6-140.4 19.17-226.95 7-86.56-12.16-162.86-37.75-216.23-69.29-26.69-15.76-47.62-33-61.25-50.76-13.63-17.76-19.92-36.01-17.42-53.84Z"/>
  <path stroke="url(#s)" d="M31.16 293.54c2.82-17.78 14.17-33.4 32.4-46.4 18.22-13 43.28-23.36 73.41-30.64 60.26-14.55 140.7-16.72 227.04-3.04 86.34 13.67 162.17 40.6 214.98 73.05 26.41 16.23 47.04 33.83 60.36 51.83 13.31 18 19.29 36.35 16.47 54.14-2.82 17.78-14.17 33.4-32.4 46.4-18.22 13-43.28 23.36-73.41 30.63-60.26 14.55-140.7 16.72-227.04 3.05-86.33-13.68-162.17-40.6-214.98-73.06-26.41-16.23-47.04-33.83-60.36-51.82-13.31-18-19.29-36.36-16.47-54.14Z"/>
  <path stroke="url(#t)" d="M32.07 288.1c3.13-17.74 14.76-33.15 33.2-45.83 18.45-12.68 43.69-22.6 73.94-29.35 60.5-13.5 140.97-14.27 227.06.91 86.08 15.18 161.44 43.43 213.67 76.8 26.13 16.69 46.44 34.64 59.44 52.87 13 18.23 18.66 36.69 15.53 54.42-3.13 17.73-14.75 33.14-33.2 45.82-18.45 12.69-43.69 22.6-73.94 29.36-60.5 13.5-140.97 14.26-227.06-.92-86.08-15.18-161.43-43.42-213.67-76.8-26.12-16.68-46.44-34.64-59.44-52.87-13-18.22-18.66-36.68-15.53-54.41Z"/>
  <path stroke="url(#u)" d="M33.08 282.67c3.43-17.68 15.33-32.88 34-45.24 18.66-12.36 44.07-21.84 74.43-28.06 60.73-12.43 141.2-11.8 227 4.88 85.81 16.68 160.66 46.23 212.31 80.51 25.83 17.15 45.83 35.46 58.51 53.9 12.68 18.46 18.01 37.01 14.57 54.69-3.43 17.67-15.33 32.88-34 45.23-18.66 12.36-44.06 21.84-74.43 28.06-60.73 12.44-141.2 11.8-227-4.88-85.81-16.67-160.66-46.23-212.31-80.51-25.83-17.14-45.83-35.45-58.5-53.9-12.69-18.45-18.02-37-14.58-54.68Z"/>
  <path stroke="url(#v)" d="M34.18 277.26c3.74-17.61 15.9-32.6 34.78-44.64 18.88-12.03 44.45-21.06 74.92-26.75 60.93-11.38 141.38-9.34 226.88 8.84 85.5 18.17 159.83 49.03 210.87 84.2 25.52 17.6 45.2 36.25 57.56 54.92 12.35 18.67 17.36 37.31 13.61 54.92-3.74 17.62-15.9 32.61-34.78 44.64-18.88 12.03-44.44 21.07-74.91 26.76-60.94 11.37-141.39 9.33-226.89-8.84-85.5-18.18-159.82-49.03-210.87-84.21-25.52-17.59-45.2-36.24-57.56-54.91-12.35-18.67-17.36-37.32-13.61-54.93Z"/>
  <path stroke="url(#w)" d="M35.37 271.87c4.05-17.54 16.47-32.32 35.56-44.02 19.08-11.7 44.8-20.29 75.37-25.44 61.13-10.31 141.53-6.87 226.7 12.8 85.17 19.66 158.94 51.8 209.36 87.87 25.21 18.03 44.56 37.03 56.6 55.9 12.02 18.89 16.7 37.62 12.65 55.16-4.05 17.55-16.47 32.33-35.56 44.03-19.08 11.7-44.8 20.28-75.37 25.44-61.12 10.31-141.52 6.87-226.7-12.8-85.17-19.66-158.94-51.81-209.36-87.87-25.21-18.04-44.56-37.03-56.6-55.91-12.02-18.88-16.7-37.61-12.65-55.16Z"/>
  <path stroke="url(#x)" d="M36.66 266.5c4.36-17.46 17.03-32.03 36.32-43.4 19.29-11.35 45.15-19.5 75.8-24.12 61.3-9.24 141.63-4.39 226.44 16.76 84.82 21.14 158.02 54.57 207.8 91.51 24.9 18.47 43.91 37.8 55.6 56.9 11.7 19.08 16.06 37.89 11.7 55.36-4.35 17.47-17.03 32.03-36.32 43.4-19.28 11.36-45.15 19.5-75.8 24.12-61.3 9.24-141.63 4.4-226.44-16.75-84.82-21.15-158.02-54.58-207.8-91.52-24.9-18.47-43.91-37.8-55.6-56.89-11.7-19.08-16.06-37.9-11.7-55.36Z"/>
  <path stroke="url(#y)" d="M38.04 261.16c4.66-17.39 17.59-31.73 37.07-42.75 19.49-11.03 45.49-18.72 76.22-22.8 61.45-8.17 141.68-1.92 226.11 20.7 84.43 22.62 157.04 57.33 206.17 95.13 24.57 18.9 43.24 38.56 54.6 57.85s15.39 38.17 10.73 55.56c-4.66 17.4-17.59 31.73-37.07 42.76-19.48 11.02-45.49 18.71-76.22 22.8-61.44 8.17-141.67 1.92-226.1-20.7-84.44-22.63-157.05-57.33-206.18-95.13-24.56-18.9-43.24-38.56-54.6-57.85-11.36-19.3-15.39-38.18-10.73-55.57Z"/>
  <path stroke="url(#z)" d="M39.52 255.84c4.96-17.3 18.14-31.42 37.8-42.1 19.68-10.68 45.82-17.92 76.6-21.46 61.6-7.1 141.7.55 225.73 24.64 84.02 24.1 156 60.06 204.47 98.71 24.24 19.33 42.57 39.31 53.6 58.8 11.01 19.48 14.7 38.43 9.75 55.74-4.97 17.3-18.14 31.42-37.82 42.1-19.67 10.69-45.8 17.92-76.6 21.47-61.58 7.1-141.69-.55-225.71-24.65-84.03-24.1-156.02-60.06-204.48-98.7-24.24-19.34-42.57-39.32-53.59-58.8-11.02-19.49-14.72-38.44-9.75-55.75Z"/>
  <path stroke="url(#A)" d="M41.08 250.55c5.27-17.22 18.69-31.1 38.54-41.43 19.86-10.34 46.12-17.12 76.97-20.13 61.7-6.02 141.66 3.02 225.25 28.58 83.6 25.56 154.94 62.78 202.73 102.27 23.89 19.74 41.87 40.04 52.55 59.72 10.68 19.67 14.04 38.68 8.78 55.9-5.27 17.22-18.69 31.1-38.54 41.44-19.86 10.34-46.12 17.11-76.97 20.12-61.7 6.02-141.66-3.02-225.25-28.58-83.6-25.55-154.94-62.77-202.72-102.26-23.9-19.75-41.88-40.05-52.56-59.72-10.68-19.68-14.04-38.69-8.78-55.9Z"/>
  <path stroke="url(#B)" d="M42.74 245.29c5.57-17.13 19.23-30.77 39.26-40.76 20.03-9.99 46.4-16.3 77.3-18.78 61.8-4.94 141.6 5.5 224.72 32.51 83.14 27.01 153.83 65.47 200.91 105.79 23.55 20.16 41.17 40.77 51.5 60.63 10.34 19.85 13.37 38.92 7.8 56.05-5.56 17.12-19.22 30.76-39.25 40.75-20.03 10-46.4 16.31-77.3 18.78-61.8 4.94-141.59-5.5-224.72-32.5-83.13-27.02-153.82-65.47-200.91-105.8-23.55-20.15-41.17-40.76-51.5-60.62-10.34-19.86-13.37-38.93-7.8-56.05Z"/>
  <path stroke="url(#C)" d="M44.5 240.06c5.86-17.03 19.75-30.43 39.96-40.07 20.2-9.64 46.68-15.5 77.62-17.43 61.87-3.86 141.47 7.97 224.11 36.43 82.65 28.45 152.66 68.14 199.04 109.27 23.18 20.57 40.45 41.49 50.43 61.52 9.99 20.04 12.69 39.16 6.83 56.18-5.87 17.02-19.76 30.43-39.97 40.07-20.2 9.64-46.68 15.49-77.62 17.42-61.86 3.87-141.46-7.96-224.11-36.42s-152.66-68.14-199.04-109.28c-23.18-20.57-40.44-41.48-50.43-61.52-9.99-20.03-12.69-39.15-6.83-56.18Z"/>
  <path stroke="url(#D)" d="M46.34 234.85c6.16-16.92 20.28-30.08 40.65-39.36 20.37-9.29 46.95-14.68 77.91-16.07 61.93-2.78 141.31 10.43 223.45 40.33 82.14 29.9 151.45 70.8 197.1 112.74 22.82 20.97 39.72 42.18 49.35 62.39 9.64 20.2 12 39.36 5.84 56.28-6.15 16.92-20.28 30.08-40.65 39.37-20.37 9.28-46.95 14.67-77.91 16.06-61.93 2.79-141.31-10.43-223.45-40.33-82.14-29.9-151.44-70.8-197.1-112.73-22.82-20.97-39.72-42.18-49.35-62.4-9.64-20.2-12-39.36-5.84-56.28Z"/>
  <path stroke="url(#E)" d="M48.27 229.68c6.45-16.8 20.8-29.72 41.34-38.64 20.53-8.93 47.2-13.86 78.18-14.71 61.96-1.7 141.1 12.9 222.7 44.22 81.61 31.33 150.2 73.43 195.1 116.16 22.46 21.37 38.98 42.87 48.26 63.24 9.28 20.37 11.31 39.57 4.86 56.38-6.45 16.81-20.8 29.72-41.34 38.65-20.52 8.93-47.2 13.85-78.17 14.7-61.97 1.7-141.1-12.9-222.72-44.22-81.6-31.32-150.18-73.43-195.1-116.16-22.45-21.36-38.97-42.87-48.25-63.24-9.28-20.37-11.31-39.57-4.86-56.38Z"/>
  <path stroke="url(#F)" d="M50.3 224.55c6.74-16.7 21.32-29.35 42-37.92s47.43-13.03 78.42-13.34c61.99-.62 140.86 15.36 221.9 48.1 81.05 32.75 148.89 76.04 193.05 119.55 22.08 21.75 38.22 43.54 47.15 64.07 8.92 20.53 10.61 39.76 3.87 56.46-6.75 16.7-21.33 29.35-42 37.92-20.69 8.57-47.44 13.03-78.43 13.34-61.99.62-140.86-15.36-221.9-48.1-81.05-32.75-148.89-76.05-193.05-119.55C79.23 323.32 63.1 301.54 54.17 281c-8.93-20.52-10.62-39.76-3.88-56.45Z"/>
  <path stroke="url(#G)" d="M52.4 219.45c7.04-16.57 21.84-28.98 42.66-37.18 20.83-8.2 47.66-12.2 78.65-11.97 61.99.46 140.57 17.81 221.03 51.97 80.46 34.15 147.53 78.62 190.93 122.9 21.7 22.13 37.45 44.2 46.02 64.88 8.56 20.68 9.92 39.94 2.89 56.52-7.04 16.57-21.84 28.97-42.66 37.18-20.83 8.2-47.65 12.2-78.65 11.97-61.99-.47-140.57-17.82-221.03-51.97-80.46-34.16-147.53-78.63-190.93-122.9-21.7-22.14-37.45-44.2-46.02-64.89-8.56-20.68-9.92-39.94-2.89-56.51Z"/>
  <path stroke="url(#H)" d="M54.6 214.39c7.33-16.45 22.34-28.6 43.3-36.43 20.98-7.84 47.86-11.37 78.85-10.6 61.97 1.54 140.24 20.27 220.1 55.82 79.85 35.55 146.13 81.19 188.74 126.21 21.3 22.51 36.68 44.85 44.88 65.68 8.2 20.83 9.23 40.1 1.9 56.56-7.32 16.44-22.33 28.59-43.3 36.43s-47.85 11.36-78.84 10.6c-61.97-1.55-140.24-20.27-220.09-55.82C210.3 427.27 144 381.63 101.4 336.63c-21.3-22.52-36.68-44.86-44.88-65.69-8.2-20.82-9.23-40.1-1.9-56.55Z"/>
  <path stroke="url(#I)" d="M56.9 209.37c7.6-16.32 22.82-28.2 43.93-35.68 21.1-7.47 48.04-10.52 79.01-9.21 61.94 2.62 139.86 22.7 219.09 59.65 79.22 36.94 144.7 83.73 186.51 129.48 20.91 22.88 35.9 45.49 43.73 66.46 7.84 20.97 8.53 40.26.92 56.58-7.61 16.32-22.83 28.2-43.93 35.67-21.1 7.47-48.05 10.53-79.02 9.22-61.94-2.63-139.86-22.71-219.08-59.65-79.22-36.95-144.7-83.73-186.52-129.49-20.91-22.88-35.9-45.48-43.73-66.45-7.84-20.97-8.52-40.27-.92-56.58Z"/>
  <path stroke="url(#J)" d="M59.27 204.38c7.9-16.18 23.32-27.79 44.55-34.9 21.23-7.1 48.22-9.68 79.16-7.83 61.88 3.7 139.45 25.15 218.01 63.47 78.57 38.31 143.22 86.23 184.23 132.71 20.51 23.25 35.1 46.1 42.56 67.21 7.48 21.1 7.82 40.4-.07 56.6-7.9 16.17-23.32 27.79-44.55 34.89-21.23 7.1-48.22 9.69-79.16 7.84-61.88-3.71-139.44-25.15-218-63.47-78.57-38.32-143.22-86.24-184.24-132.72-20.5-23.24-35.1-46.1-42.56-67.2-7.47-21.1-7.82-40.41.07-56.6Z"/>
  <path stroke="url(#K)" d="M61.73 199.44c8.18-16.04 23.8-27.38 45.15-34.11 21.35-6.73 48.39-8.85 79.3-6.45 61.8 4.78 138.97 27.57 216.86 67.26 77.88 39.68 141.69 88.72 181.89 135.91 20.1 23.6 34.28 46.71 41.38 67.94 7.1 21.23 7.11 40.54-1.06 56.58-8.18 16.04-23.8 27.38-45.15 34.12-21.35 6.73-48.39 8.84-79.29 6.45-61.8-4.79-138.98-27.58-216.87-67.26-77.88-39.69-141.69-88.73-181.88-135.92-20.1-23.6-34.29-46.7-41.39-67.94-7.1-21.22-7.11-40.53 1.06-56.57Z"/>
  <path stroke="url(#L)" d="M64.28 194.55c8.45-15.9 24.28-26.96 45.74-33.32 21.46-6.36 48.53-8 79.39-5.07 61.71 5.86 138.48 30 215.66 71.03 77.18 41.04 140.12 91.19 179.49 139.07 19.68 23.94 33.46 47.3 40.19 68.65 6.73 21.35 6.4 40.66-2.05 56.56-8.45 15.9-24.28 26.96-45.74 33.32-21.46 6.36-48.53 8-79.39 5.07-61.71-5.87-138.48-30-215.66-71.04-77.18-41.04-140.12-91.18-179.49-139.07-19.68-23.94-33.46-47.3-40.19-68.65-6.73-21.35-6.4-40.65 2.05-56.55Z"/>
  <path stroke="url(#M)" d="M66.91 189.7c8.73-15.75 24.75-26.54 46.32-32.52 21.57-5.98 48.66-7.15 79.46-3.68 61.6 6.94 137.94 32.4 214.4 74.79 76.44 42.37 138.5 93.61 177.02 142.18 19.27 24.28 32.63 47.87 39 69.34 6.35 21.46 5.68 40.76-3.04 56.5-8.73 15.75-24.75 26.54-46.32 32.53-21.57 5.98-48.66 7.15-79.46 3.68-61.6-6.94-137.94-32.41-214.39-74.8-76.45-42.37-138.5-93.6-177.03-142.17-19.27-24.28-32.63-47.88-39-69.34-6.35-21.47-5.68-40.76 3.04-56.51Z"/>
  <path stroke="url(#N)" d="M69.63 184.9c9-15.6 25.2-26.1 46.88-31.71 21.67-5.6 48.78-6.3 79.51-2.3 61.47 8.02 137.35 34.82 213.05 78.52 75.7 43.71 136.85 96.02 174.53 145.25 18.84 24.62 31.79 48.44 37.77 70.01 5.98 21.58 4.98 40.86-4.02 56.45-9 15.6-25.2 26.1-46.87 31.7-21.68 5.61-48.79 6.3-79.52 2.3-61.47-8.01-137.35-34.81-213.05-78.52-75.7-43.7-136.85-96.02-174.53-145.25-18.83-24.61-31.79-48.44-37.77-70-5.98-21.58-4.98-40.86 4.02-56.45Z"/>
  <path stroke="url(#O)" d="M72.43 180.14c9.28-15.43 25.66-25.65 47.42-30.88 21.77-5.23 48.89-5.45 79.55-.9 61.32 9.07 136.72 37.2 211.65 82.21C485.97 275.6 546.2 328.98 583 378.86c18.4 24.94 30.94 48.98 36.54 70.66 5.6 21.67 4.27 40.93-5 56.37-9.27 15.43-25.65 25.65-47.42 30.88-21.77 5.23-48.89 5.45-79.55.9-61.32-9.08-136.72-37.2-211.64-82.22-74.93-45.02-135.16-98.4-171.97-148.27-18.4-24.94-30.94-48.99-36.54-70.66-5.6-21.67-4.27-40.94 5-56.37Z"/>
  <path stroke="url(#P)" d="M75.32 175.43c9.54-15.27 26.1-25.2 47.95-30.05 21.85-4.84 48.97-4.6 79.55.49 61.15 10.15 136.05 39.58 210.18 85.9 74.13 46.32 133.41 100.74 169.35 151.25 17.97 25.26 30.08 49.52 35.3 71.29 5.23 21.77 3.56 41-5.99 56.27-9.54 15.27-26.1 25.2-47.95 30.05-21.85 4.85-48.97 4.6-79.55-.48-61.15-10.15-136.05-39.59-210.18-85.9-74.13-46.33-133.41-100.74-169.35-151.26-17.96-25.25-30.08-49.52-35.3-71.28-5.23-21.77-3.55-41 5.99-56.28Z"/>
  <path stroke="url(#Q)" d="M78.28 170.78c9.8-15.1 26.53-24.75 48.47-29.2 21.94-4.47 49.05-3.75 79.53 1.86 60.97 11.22 135.34 41.95 208.65 89.56 73.3 47.6 131.64 103.05 166.68 154.18 17.53 25.57 29.22 50.04 34.06 71.9 4.84 21.85 2.84 41.06-6.97 56.16-9.8 15.1-26.53 24.74-48.47 29.2-21.94 4.47-49.05 3.74-79.53-1.87-60.97-11.22-135.34-41.95-208.65-89.56-73.3-47.6-131.64-103.05-166.68-154.18-17.52-25.57-29.21-50.04-34.06-71.9-4.84-21.85-2.83-41.05 6.97-56.15Z"/>
  <path stroke="url(#R)" d="M81.33 166.18c10.07-14.93 26.96-24.28 48.97-28.36 22.01-4.08 49.1-2.88 79.48 3.26 60.77 12.28 134.6 44.3 207.06 93.18C489.3 283.14 546.66 339.6 580.8 391.33c17.08 25.87 28.34 50.54 32.8 72.48 4.46 21.94 2.12 41.1-7.95 56.03-10.07 14.92-26.96 24.27-48.97 28.36-22.01 4.08-49.1 2.88-79.48-3.26-60.76-12.28-134.59-44.31-207.06-93.19-72.46-48.88-129.81-105.33-163.96-157.07-17.08-25.87-28.34-50.54-32.8-72.47-4.46-21.94-2.12-41.1 7.95-56.03Z"/>
  <path stroke="url(#S)" d="M84.46 161.63c10.32-14.75 27.38-23.8 49.45-27.5 22.08-3.7 49.15-2.03 79.42 4.64 60.54 13.34 133.8 46.65 205.4 96.8 71.6 50.13 127.95 107.57 161.2 159.9 16.62 26.16 27.44 51.02 31.52 73.04 4.08 22 1.4 41.13-8.92 55.88-10.33 14.74-27.38 23.8-49.46 27.5-22.08 3.7-49.15 2.02-79.42-4.65-60.53-13.34-133.79-46.65-205.4-96.79-71.6-50.13-127.95-107.58-161.2-159.9-16.61-26.17-27.44-51.03-31.52-73.04-4.08-22.01-1.4-41.13 8.93-55.88Z"/>
  <path stroke="url(#T)" d="M87.66 157.14c10.58-14.57 27.8-23.33 49.93-26.64 22.14-3.3 49.17-1.16 79.32 6.03 60.3 14.4 132.96 48.98 203.68 100.36s126.06 109.8 158.38 162.7c16.17 26.45 26.56 51.5 30.25 73.57 3.7 22.08.68 41.15-9.9 55.72s-27.79 23.32-49.93 26.63c-22.14 3.31-49.17 1.17-79.32-6.03-60.3-14.4-132.96-48.98-203.68-100.36-70.71-51.38-126.06-109.8-158.38-162.7-16.16-26.44-26.56-51.49-30.25-73.57-3.7-22.08-.68-41.15 9.9-55.71Z"/>
  <path stroke="url(#U)" d="M90.94 152.7c10.84-14.38 28.2-22.83 50.39-25.76 22.2-2.92 49.19-.3 79.2 7.42 60.04 15.44 132.09 51.29 201.9 103.9 69.8 52.6 124.13 111.97 155.52 165.43 15.7 26.73 25.65 51.95 28.96 74.1 3.3 22.13-.04 41.15-10.87 55.53-10.84 14.38-28.2 22.83-50.39 25.75-22.2 2.93-49.19.31-79.2-7.41-60.04-15.44-132.09-51.3-201.9-103.9-69.8-52.6-124.13-111.98-155.52-165.43-15.7-26.73-25.65-51.95-28.96-74.1-3.3-22.13.04-41.15 10.87-55.53Z"/>
  <path stroke="url(#V)" d="M94.3 148.32c11.09-14.19 28.6-22.34 50.83-24.87 22.25-2.54 49.19.55 79.07 8.8 59.75 16.48 131.16 53.58 200.05 107.4 68.88 53.81 122.15 114.13 152.6 168.12 15.24 27 24.75 52.4 27.67 74.59 2.92 22.2-.76 41.15-11.84 55.33-11.09 14.2-28.59 22.34-50.83 24.88-22.24 2.53-49.19-.55-79.06-8.8-59.76-16.49-131.17-53.58-200.05-107.4-68.89-53.82-122.16-114.13-152.62-168.13-15.22-27-24.74-52.39-27.66-74.58-2.92-22.2.76-41.15 11.84-55.34Z"/>
  <path stroke="url(#W)" d="M97.74 144c11.33-14 28.97-21.83 51.25-23.98 22.29-2.15 49.17 1.4 78.9 10.17 59.46 17.53 130.22 55.87 198.15 110.88s120.14 116.25 149.65 170.76c14.76 27.26 23.82 52.82 26.35 75.06 2.54 22.24-1.47 41.13-12.8 55.12-11.33 14-28.97 21.84-51.25 23.99-22.29 2.14-49.17-1.41-78.9-10.18-59.46-17.53-130.21-55.87-198.14-110.88-67.94-55-120.15-116.24-149.66-170.76-14.75-27.26-23.82-52.81-26.35-75.06C82.4 176.88 86.4 158 97.74 144Z"/>
  <path stroke="url(#X)" d="M101.25 139.74c11.57-13.79 29.35-21.32 51.66-23.08 22.32-1.76 49.14 2.26 78.71 11.55 59.15 18.56 129.22 58.13 196.18 114.32 66.96 56.18 118.1 118.32 146.65 173.34 14.28 27.52 22.9 53.23 25.04 75.51 2.15 22.28-2.18 41.1-13.76 54.9-11.57 13.79-29.35 21.32-51.66 23.08-22.32 1.76-49.14-2.27-78.71-11.55-59.15-18.57-129.22-58.13-196.18-114.32-66.96-56.19-118.1-118.33-146.65-173.35-14.28-27.51-22.9-53.22-25.04-75.5-2.15-22.29 2.19-41.1 13.76-54.9Z"/>
  <path stroke="url(#Y)" d="M104.83 135.55c11.81-13.6 29.72-20.82 52.06-22.18 22.35-1.37 49.1 3.12 78.5 12.92 58.81 19.6 128.18 60.38 194.15 117.72 65.97 57.35 116.02 120.37 143.6 175.88 13.8 27.76 21.97 53.62 23.73 75.94 1.75 22.31-2.91 41.05-14.72 54.64-11.81 13.59-29.72 20.81-52.06 22.18-22.35 1.37-49.1-3.12-78.5-12.92-58.81-19.6-128.18-60.38-194.15-117.73s-116.02-120.37-143.6-175.88c-13.8-27.76-21.97-53.61-23.72-75.93-1.76-22.32 2.9-41.06 14.71-54.64Z"/>
  <path stroke="url(#Z)" d="M108.49 131.41c12.05-13.38 30.08-20.29 52.44-21.27 22.37-.97 49.03 3.98 78.26 14.3 58.46 20.61 127.1 62.6 192.07 121.1 64.96 58.48 113.9 122.36 140.51 178.35 13.3 28 21.02 54 22.39 76.34 1.37 22.34-3.62 41-15.67 54.37-12.05 13.38-30.08 20.3-52.44 21.27-22.37.98-49.03-3.98-78.26-14.29-58.46-20.62-127.1-62.6-192.07-121.1-64.96-58.49-113.9-122.37-140.5-178.36-13.32-27.99-21.03-53.99-22.4-76.33-1.36-22.34 3.62-41 15.67-54.38Z"/>
  <path stroke="url(#aa)" d="M112.22 127.34c12.28-13.17 30.43-19.76 52.8-20.34 22.38-.6 48.95 4.83 78 15.65 58.1 21.63 126 64.81 189.93 124.43 63.93 59.61 111.74 124.34 137.37 180.78 12.82 28.22 20.08 54.35 21.06 76.72.97 22.36-4.34 40.92-16.62 54.1-12.28 13.16-30.42 19.75-52.8 20.34-22.38.59-48.95-4.83-78-15.65-58.09-21.64-126-64.82-189.92-124.43-63.93-59.62-111.75-124.35-137.38-180.79-12.82-28.22-20.08-54.35-21.06-76.71-.97-22.37 4.34-40.93 16.62-54.1Z"/>
  <path stroke="url(#ab)" d="M116.02 123.34c12.5-12.95 30.76-19.23 53.15-19.42 22.39-.2 48.86 5.68 77.71 17 57.7 22.65 124.85 67.01 187.73 127.73 62.88 60.72 109.55 126.28 134.2 183.16 12.32 28.44 19.13 54.69 19.71 77.07.58 22.38-5.05 40.84-17.56 53.8-12.5 12.95-30.76 19.22-53.15 19.42-22.38.2-48.85-5.69-77.7-17.01-57.72-22.65-124.86-67-187.74-127.73-62.87-60.72-109.55-126.27-134.2-183.15-12.32-28.45-19.13-54.7-19.71-77.07-.58-22.38 5.05-40.85 17.56-53.8Z"/>
  <path stroke="url(#ac)" d="M119.89 119.4c12.73-12.73 31.1-18.68 53.48-18.49 22.38.2 48.75 6.54 77.4 18.36 57.3 23.65 123.66 69.18 185.47 130.99 61.8 61.8 107.34 128.17 130.98 185.47 11.83 28.65 18.17 55.01 18.37 77.4.2 22.38-5.76 40.75-18.5 53.48-12.73 12.73-31.1 18.69-53.48 18.5-22.38-.2-48.75-6.54-77.4-18.37-57.3-23.65-123.66-69.17-185.47-130.98-61.8-61.81-107.33-128.17-130.98-185.47-11.83-28.65-18.17-55.02-18.37-77.4-.2-22.39 5.77-40.75 18.5-53.49Z"/>
  <path stroke="url(#ad)" d="M123.82 115.53c12.95-12.5 31.42-18.14 53.8-17.55 22.38.58 48.63 7.39 77.07 19.71 56.88 24.65 122.43 71.32 183.16 134.2 60.72 62.88 105.08 130.02 127.72 187.73 11.32 28.85 17.2 55.32 17.01 77.71-.2 22.38-6.47 40.64-19.42 53.15-12.95 12.5-31.42 18.14-53.8 17.56-22.38-.59-48.63-7.4-77.07-19.71-56.88-24.65-122.43-71.33-183.15-134.2C188.42 371.24 144.06 304.1 121.4 246.4c-11.32-28.86-17.2-55.33-17.01-77.71.2-22.39 6.47-40.65 19.42-53.16Z"/>
  <path stroke="url(#ae)" d="M127.83 111.74c13.16-12.28 31.73-17.6 54.09-16.62 22.37.98 48.5 8.24 76.72 21.05 56.44 25.64 121.17 73.45 180.78 137.38 59.62 63.93 102.8 131.84 124.43 189.93 10.82 29.05 16.24 55.62 15.65 78-.58 22.37-7.18 40.52-20.35 52.8-13.16 12.28-31.73 17.59-54.09 16.62-22.37-.98-48.5-8.24-76.71-21.06-56.45-25.63-121.17-73.45-180.79-137.38-59.61-63.92-102.8-131.83-124.43-189.92-10.82-29.05-16.24-55.62-15.65-78 .58-22.38 7.18-40.52 20.35-52.8Z"/>
  <path stroke="url(#af)" d="M131.9 108c13.38-12.04 32.03-17.03 54.37-15.66 22.35 1.36 48.34 9.08 76.34 22.39 55.98 26.61 119.87 75.55 178.36 140.51 58.49 64.96 100.48 133.6 121.1 192.07 10.3 29.23 15.26 55.9 14.28 78.26-.98 22.36-7.88 40.39-21.26 52.44-13.38 12.04-32.04 17.03-54.38 15.67-22.35-1.37-48.34-9.08-76.34-22.4-55.98-26.6-119.87-75.54-178.36-140.5-58.48-64.96-100.47-133.61-121.1-192.07-10.3-29.24-15.26-55.9-14.28-78.26.98-22.37 7.89-40.4 21.27-52.44Z"/>
  <path stroke="url(#ag)" d="M136.03 104.35c13.59-11.81 32.32-16.47 54.64-14.72 22.32 1.76 48.18 9.93 75.93 23.72 55.52 27.6 118.54 77.63 175.88 143.6 57.35 65.98 98.14 135.35 117.73 194.16 9.8 29.4 14.29 56.15 12.92 78.5-1.37 22.34-8.59 40.24-22.18 52.05-13.59 11.82-32.32 16.48-54.64 14.72-22.32-1.75-48.18-9.92-75.93-23.72-55.51-27.58-118.53-77.63-175.88-143.6-57.35-65.97-98.13-135.34-117.73-194.15-9.8-29.41-14.29-56.15-12.92-78.5 1.37-22.34 8.6-40.25 22.18-52.06Z"/>
  <path stroke="url(#ah)" d="M140.23 100.77c13.79-11.58 32.6-15.9 54.89-13.77 22.28 2.15 48 10.77 75.5 25.04 55.03 28.56 117.16 79.7 173.35 146.66s95.76 137.03 114.32 196.17c9.29 29.58 13.3 56.4 11.55 78.71-1.76 22.32-9.3 40.1-23.08 51.67-13.8 11.57-32.61 15.9-54.9 13.76-22.28-2.14-47.99-10.76-75.5-25.04C361.33 545.42 299.2 494.28 243 427.32c-56.19-66.96-95.75-137.03-114.32-196.18-9.28-29.57-13.3-56.39-11.55-78.7 1.76-22.32 9.3-40.1 23.09-51.67Z"/>
  <path stroke="url(#ai)" d="M144.48 97.26c14-11.34 32.89-15.34 55.13-12.8 22.24 2.53 47.8 11.6 75.06 26.35 54.51 29.5 115.75 81.72 170.76 149.65 55 67.93 93.35 138.69 110.88 198.15 8.76 29.73 12.32 56.61 10.17 78.9-2.15 22.28-10 39.92-23.98 51.25-14 11.33-32.88 15.33-55.13 12.8-22.24-2.53-47.8-11.6-75.05-26.35-54.52-29.51-115.75-81.72-170.76-149.66-55.02-67.93-93.35-138.68-110.88-198.14-8.77-29.73-12.33-56.62-10.18-78.9 2.15-22.28 10-39.92 23.98-51.25Z"/>
  <path stroke="url(#aj)" d="M148.8 93.82c14.2-11.08 33.15-14.76 55.34-11.84 22.2 2.92 47.6 12.43 74.59 27.66 54 30.46 114.3 83.73 168.12 152.61 53.82 68.88 90.92 140.3 107.4 200.05 8.25 29.88 11.34 56.82 8.8 79.07-2.53 22.24-10.68 39.74-24.87 50.83-14.19 11.08-33.15 14.75-55.34 11.83-22.2-2.92-47.59-12.43-74.59-27.66-53.99-30.45-114.3-83.73-168.12-152.6-53.82-68.89-90.91-140.3-107.4-200.06-8.25-29.88-11.34-56.82-8.8-79.06 2.54-22.24 10.69-39.75 24.87-50.83Z"/>
  <path stroke="url(#ak)" d="M153.18 90.46c14.38-10.84 33.4-14.18 55.54-10.87 22.14 3.3 47.36 13.26 74.1 28.96 53.44 31.4 112.82 85.71 165.43 155.52 52.6 69.8 88.45 141.86 103.9 201.9 7.72 30.01 10.33 57 7.4 79.2-2.92 22.2-11.37 39.55-25.75 50.38-14.38 10.84-33.4 14.18-55.54 10.88-22.14-3.31-47.36-13.26-74.09-28.96-53.45-31.4-112.83-85.71-165.43-155.52-52.6-69.81-88.46-141.86-103.9-201.9-7.72-30.02-10.34-57-7.42-79.2 2.93-22.2 11.38-39.55 25.76-50.39Z"/>
  <path stroke="url(#al)" d="M157.62 87.18c14.56-10.59 33.64-13.6 55.72-9.9 22.07 3.7 47.12 14.08 73.57 30.24 52.9 32.33 111.32 87.67 162.7 158.39 51.38 70.72 85.96 143.38 100.36 203.67 7.2 30.16 9.33 57.19 6.02 79.33-3.3 22.14-12.06 39.35-26.63 49.93-14.56 10.58-33.63 13.6-55.71 9.9-22.08-3.7-47.13-14.09-73.58-30.25-52.9-32.32-111.32-87.67-162.7-158.38-51.37-70.72-85.96-143.38-100.35-203.68-7.2-30.15-9.35-57.18-6.03-79.32 3.3-22.14 12.06-39.35 26.63-49.93Z"/>
  <path stroke="url(#am)" d="M162.11 83.97c14.75-10.33 33.87-13 55.88-8.92 22.01 4.07 46.88 14.9 73.04 31.52 52.33 33.24 109.77 89.6 159.9 161.2 50.14 71.6 83.45 144.86 96.8 205.4 6.66 30.27 8.34 57.34 4.64 79.42-3.7 22.07-12.75 39.13-27.5 49.45-14.75 10.33-33.87 13-55.88 8.93-22.01-4.08-46.88-14.9-73.04-31.53-52.32-33.24-109.77-89.6-159.9-161.2-50.14-71.6-83.45-144.86-96.8-205.4-6.66-30.26-8.34-57.33-4.64-79.41s12.75-39.13 27.5-49.46Z"/>
  <path stroke="url(#an)" d="M166.66 80.85c14.93-10.07 34.1-12.41 56.03-7.95 21.94 4.46 46.6 15.72 72.48 32.8 51.73 34.14 108.18 91.5 157.06 163.96 48.88 72.47 80.91 146.3 93.2 207.05 6.13 30.39 7.33 57.48 3.25 79.49-4.08 22-13.43 38.9-28.36 48.97s-34.1 12.41-56.03 7.95c-21.94-4.46-46.6-15.72-72.47-32.8-51.74-34.15-108.2-91.5-157.07-163.96-48.88-72.47-80.9-146.3-93.19-207.06-6.14-30.38-7.34-57.47-3.26-79.48 4.08-22.01 13.43-38.9 28.36-48.97Z"/>
  <path stroke="url(#ao)" d="M171.26 77.8c15.1-9.8 34.3-11.81 56.16-6.97 21.86 4.84 46.33 16.53 71.9 34.06 51.13 35.04 106.57 93.37 154.18 166.68 47.6 73.3 78.34 147.68 89.56 208.65 5.6 30.48 6.33 57.59 1.87 79.53-4.47 21.93-14.11 38.66-29.21 48.47-15.1 9.8-34.3 11.8-56.16 6.97-21.86-4.85-46.32-16.54-71.9-34.06-51.13-35.05-106.57-93.37-154.18-166.68-47.6-73.31-78.34-147.69-89.56-208.65-5.6-30.49-6.33-57.6-1.87-79.53 4.47-21.94 14.11-38.66 29.21-48.47Z"/>
  <path stroke="url(#ap)" d="M175.92 74.83c15.27-9.54 34.5-11.2 56.27-5.98 21.77 5.22 46.03 17.33 71.29 35.3 50.51 35.94 104.93 95.22 151.25 169.35 46.32 74.13 75.75 149.03 85.9 210.18 5.08 30.58 5.33 57.7.48 79.55-4.84 21.85-14.78 38.41-30.05 47.95-15.26 9.54-34.5 11.21-56.27 5.99-21.77-5.22-46.03-17.34-71.29-35.3-50.5-35.94-104.92-95.23-151.25-169.35-46.32-74.13-75.75-149.03-85.9-210.18-5.08-30.58-5.33-57.7-.48-79.56 4.84-21.85 14.78-38.4 30.05-47.95Z"/>
  <path stroke="url(#aq)" d="M180.62 71.95c15.44-9.27 34.7-10.6 56.37-5 21.67 5.6 45.72 18.13 70.66 36.54 49.88 36.8 103.25 97.04 148.27 171.96 45.02 74.93 73.14 150.33 82.23 211.65 4.54 30.66 4.32 57.78-.91 79.55-5.23 21.76-15.45 38.14-30.88 47.41-15.44 9.28-34.7 10.61-56.37 5.01-21.67-5.6-45.72-18.14-70.66-36.54-49.88-36.81-103.25-97.04-148.27-171.97-45.02-74.92-73.14-150.32-82.23-211.64-4.54-30.67-4.32-57.78.91-79.55 5.23-21.77 15.45-38.15 30.88-47.42Z"/>
  <path stroke="url(#ar)" d="M185.38 69.15c15.6-9 34.87-10 56.44-4.02 21.58 5.98 45.4 18.93 70.02 37.77 49.23 37.67 101.54 98.82 145.25 174.53 43.7 75.7 70.5 151.57 78.51 213.05 4 30.73 3.31 57.84-2.3 79.51-5.6 21.67-16.1 37.87-31.7 46.88-15.59 9-34.87 10-56.44 4.02-21.58-5.98-45.4-18.94-70.02-37.77-49.22-37.68-101.54-98.83-145.24-174.53s-70.5-151.58-78.52-213.05c-4-30.73-3.31-57.84 2.3-79.52 5.6-21.67 16.1-37.87 31.7-46.87Z"/>
  <path stroke="url(#as)" d="M190.18 66.43c15.75-8.73 35.05-9.39 56.5-3.03 21.47 6.35 45.07 19.72 69.35 38.98 48.57 38.53 99.8 100.59 142.18 177.04C500.6 355.87 526.06 432.2 533 493.8c3.47 30.8 2.3 57.9-3.68 79.47-5.99 21.57-16.77 37.58-32.52 46.31-15.75 8.73-35.05 9.4-56.5 3.04-21.47-6.36-45.07-19.73-69.35-38.99-48.56-38.53-99.8-100.58-142.18-177.03-42.38-76.45-67.85-152.79-74.79-214.39-3.47-30.8-2.3-57.9 3.68-79.47 5.99-21.57 16.78-37.58 32.52-46.3Z"/>
  <path stroke="url(#at)" d="M195.03 63.8c15.9-8.45 35.2-8.78 56.55-2.05 21.36 6.73 44.71 20.5 68.66 40.2 47.88 39.36 98.03 102.3 139.06 179.48 41.04 77.18 65.18 153.95 71.04 215.66 2.93 30.86 1.3 57.92-5.07 79.39-6.36 21.46-17.42 37.28-33.32 45.74-15.9 8.45-35.2 8.77-56.55 2.05-21.35-6.73-44.71-20.51-68.65-40.2-47.89-39.37-98.04-102.3-139.07-179.48-41.04-77.18-65.18-153.95-71.04-215.66-2.93-30.86-1.29-57.93 5.07-79.4 6.36-21.46 17.42-37.28 33.32-45.73Z"/>
  <path stroke="url(#au)" d="M199.93 61.25c16.04-8.17 35.35-8.16 56.58-1.06 21.23 7.1 44.34 21.28 67.94 41.38 47.19 40.2 96.23 104 135.91 181.89 39.69 77.88 62.48 155.06 67.26 216.87 2.4 30.9.28 57.94-6.45 79.29-6.74 21.35-18.07 36.97-34.12 45.14-16.04 8.18-35.35 8.17-56.58 1.07-21.23-7.1-44.34-21.29-67.94-41.39-47.18-40.2-96.23-104-135.91-181.88-39.68-77.89-62.48-155.07-67.26-216.87-2.4-30.9-.28-57.94 6.45-79.3 6.74-21.34 18.08-36.97 34.12-45.14Z"/>
  <path stroke="url(#av)" d="M204.87 58.79c16.18-7.9 35.48-7.55 56.58-.08s43.97 22.06 67.21 42.57c46.48 41.01 94.4 105.66 132.72 184.23 38.32 78.56 59.76 156.13 63.47 218 1.85 30.95-.73 57.94-7.84 79.17-7.1 21.23-18.71 36.66-34.9 44.55-16.18 7.9-35.48 7.54-56.59.07-21.1-7.47-43.96-22.05-67.2-42.56-46.48-41.02-94.4-105.67-132.72-184.23-38.32-78.57-59.76-156.13-63.47-218.01-1.85-30.94.73-57.94 7.84-79.17 7.1-21.22 18.72-36.65 34.9-44.54Z"/>
  <path stroke="url(#aw)" d="M209.85 56.41c16.32-7.6 35.61-6.92 56.58.91 20.97 7.84 43.57 22.82 66.45 43.74 45.76 41.82 92.55 107.3 129.49 186.51 36.94 79.23 57.02 157.15 59.65 219.09 1.31 30.96-1.74 57.91-9.22 79.01-7.47 21.1-19.35 36.32-35.67 43.93-16.31 7.61-35.61 6.93-56.58-.91s-43.57-22.82-66.45-43.73c-45.76-41.82-92.55-107.3-129.49-186.52-36.94-79.22-57.02-157.15-59.65-219.08-1.31-30.97 1.74-57.92 9.22-79.02 7.47-21.1 19.35-36.32 35.67-43.93Z"/>
  <path stroke="url(#ax)" d="M214.87 54.12c16.45-7.32 35.73-6.3 56.56 1.9 20.83 8.2 43.17 23.58 65.68 44.89 45.02 42.61 90.65 108.9 126.2 188.75 35.56 79.85 54.28 158.12 55.83 220.09.77 30.99-2.76 57.87-10.6 78.84-7.84 20.97-19.98 35.98-36.43 43.3-16.45 7.33-35.73 6.3-56.56-1.9-20.83-8.2-43.17-23.57-65.68-44.88-45.02-42.62-90.65-108.9-126.2-188.75-35.56-79.86-54.28-158.12-55.82-220.1-.78-30.98 2.75-57.87 10.59-78.84 7.84-20.96 19.98-35.97 36.43-43.3Z"/>
  <path stroke="url(#ay)" d="M219.93 51.92c16.58-7.03 35.83-5.68 56.52 2.89 20.68 8.56 42.75 24.32 64.88 46.02 44.28 43.4 88.75 110.46 122.9 190.93 34.15 80.46 51.5 159.04 51.97 221.03.23 31-3.76 57.82-11.97 78.64-8.2 20.83-20.6 35.63-37.18 42.66-16.57 7.04-35.83 5.68-56.52-2.88-20.68-8.57-42.75-24.33-64.88-46.03-44.27-43.39-88.75-110.46-122.9-190.92-34.15-80.46-51.5-159.04-51.97-221.03-.23-31 3.76-57.82 11.97-78.65 8.2-20.83 20.6-35.62 37.18-42.66Z"/>
  <path stroke="url(#az)" d="M225.03 49.81c16.7-6.74 35.93-5.05 56.46 3.87 20.53 8.93 42.32 25.07 64.07 47.15 43.5 44.16 86.8 112 119.55 193.04 32.74 81.05 48.72 159.92 48.1 221.9-.31 31-4.77 57.75-13.34 78.43-8.57 20.68-21.23 35.26-37.92 42-16.7 6.75-35.93 5.06-56.46-3.87-20.53-8.92-42.32-25.07-64.07-47.15-43.5-44.15-86.8-111.99-119.55-193.03-32.74-81.05-48.72-159.92-48.1-221.91.31-31 4.77-57.74 13.34-78.43 8.57-20.68 21.23-35.26 37.92-42Z"/>
  <path stroke="url(#aA)" d="M230.17 47.79c16.8-6.46 36-4.43 56.38 4.86 20.37 9.28 41.87 25.8 63.24 48.25 42.73 44.92 84.83 113.5 116.16 195.1 31.32 81.6 45.92 160.75 44.22 222.71-.85 30.99-5.78 57.65-14.7 78.18-8.94 20.53-21.85 34.89-38.66 41.34-16.8 6.45-36 4.42-56.38-4.86-20.37-9.28-41.87-25.8-63.24-48.26-42.73-44.91-84.83-113.49-116.15-195.1-31.33-81.6-45.93-160.74-44.23-222.7.85-31 5.78-57.66 14.7-78.19 8.94-20.52 21.85-34.88 38.66-41.33Z"/>
  <path stroke="url(#aB)" d="M235.34 45.85c16.91-6.15 36.08-3.79 56.28 5.85 20.2 9.63 41.42 26.53 62.4 49.35 41.93 45.65 82.83 114.96 112.73 197.1 29.9 82.14 43.11 161.52 40.33 223.44-1.4 30.97-6.79 57.55-16.07 77.92-9.29 20.37-22.44 34.5-39.36 40.65-16.92 6.16-36.09 3.8-56.3-5.84-20.2-9.64-41.41-26.53-62.38-49.36-41.94-45.65-82.84-114.95-112.74-197.09-29.9-82.14-43.1-161.52-40.32-223.45 1.39-30.96 6.78-57.54 16.06-77.91 9.29-20.37 22.45-34.5 39.37-40.66Z"/>
  <path stroke="url(#aC)" d="M240.54 44.01c17.02-5.86 36.14-3.16 56.17 6.83 20.04 9.98 40.96 27.24 61.52 50.43 41.14 46.38 80.82 116.39 109.28 199.03 28.46 82.65 40.29 162.25 36.43 224.12-1.94 30.94-7.8 57.42-17.43 77.62-9.64 20.2-23.04 34.1-40.07 39.96-17.02 5.87-36.14 3.17-56.17-6.82-20.04-9.99-40.95-27.25-61.52-50.44-41.14-46.37-80.82-116.38-109.28-199.03-28.46-82.65-40.29-162.25-36.42-224.12 1.93-30.93 7.78-57.41 17.42-77.62 9.64-20.2 23.04-34.1 40.07-39.96Z"/>
  <path stroke="url(#aD)" d="M245.77 42.26c17.13-5.56 36.2-2.53 56.05 7.8 19.86 10.34 40.47 27.96 60.63 51.5 40.32 47.1 78.78 117.78 105.79 200.92 27.01 83.13 37.45 162.92 32.5 224.72-2.47 30.9-8.78 57.26-18.77 77.3-10 20.03-23.64 33.7-40.76 39.25-17.12 5.57-36.2 2.54-56.05-7.8-19.86-10.33-40.47-27.96-60.63-51.5-40.32-47.09-78.77-117.78-105.79-200.9-27-83.14-37.45-162.94-32.5-224.73 2.47-30.9 8.78-57.27 18.77-77.3 10-20.03 23.64-33.7 40.76-39.26Z"/>
  <path stroke="url(#aE)" d="M251.04 40.6c17.21-5.26 36.23-1.9 55.9 8.78s39.97 28.66 59.72 52.55c39.5 47.79 76.71 119.14 102.27 202.73 25.55 83.6 34.6 163.55 28.58 225.25-3.01 30.85-9.79 57.1-20.13 76.97-10.34 19.85-24.22 33.27-41.43 38.53-17.22 5.27-36.24 1.9-55.9-8.77-19.68-10.68-39.98-28.67-59.73-52.56-39.5-47.78-76.7-119.13-102.26-202.72-25.56-83.6-34.6-163.56-28.59-225.26 3.02-30.84 9.79-57.1 20.13-76.96 10.34-19.85 24.22-33.27 41.44-38.54Z"/>
  <path stroke="url(#aF)" d="M256.33 39.03c17.3-4.96 36.25-1.26 55.74 9.76 19.49 11.02 39.47 29.35 58.8 53.59 38.65 48.46 74.61 120.45 98.7 204.47 24.1 84.03 31.75 164.14 24.65 225.72-3.55 30.8-10.78 56.93-21.46 76.6-10.69 19.67-24.8 32.85-42.1 37.81-17.31 4.97-36.26 1.27-55.75-9.75-19.48-11.02-39.47-29.36-58.8-53.59-38.65-48.46-74.61-120.45-98.7-204.48-24.1-84.02-31.75-164.13-24.65-225.72 3.55-30.79 10.78-56.92 21.46-76.6 10.69-19.67 24.8-32.84 42.1-37.8Z"/>
  <path stroke="url(#aG)" d="M261.65 37.56c17.39-4.66 36.27-.64 55.56 10.72 19.29 11.36 38.95 30.04 57.85 54.6 37.8 49.14 72.5 121.75 95.13 206.18 22.62 84.43 28.87 164.66 20.7 226.11-4.08 30.73-11.77 56.73-22.8 76.22-11.02 19.48-25.36 32.4-42.75 37.07-17.4 4.66-36.28.63-55.57-10.73-19.29-11.36-38.95-30.04-57.85-54.6-37.8-49.14-72.5-121.74-95.13-206.17-22.62-84.44-28.87-164.67-20.7-226.12 4.09-30.72 11.77-56.73 22.8-76.21 11.02-19.48 25.37-32.41 42.76-37.07Z"/>
  <path stroke="url(#aH)" d="M266.99 36.18c17.47-4.36 36.28 0 55.37 11.69 19.09 11.7 38.42 30.71 56.89 55.6 36.93 49.8 70.37 123 91.51 207.8 21.15 84.82 26 165.15 16.75 226.45-4.62 30.64-12.76 56.51-24.12 75.8-11.36 19.29-25.93 31.96-43.4 36.32-17.47 4.36-36.28 0-55.37-11.7-19.08-11.69-38.42-30.7-56.88-55.6-36.94-49.78-70.37-122.98-91.52-207.8-21.15-84.81-26-165.14-16.75-226.44 4.62-30.65 12.76-56.52 24.12-75.8 11.37-19.3 25.93-31.97 43.4-36.32Z"/>
  <path stroke="url(#aI)" d="M272.36 34.89c17.54-4.05 36.27.63 55.15 12.66 18.88 12.02 37.88 31.38 55.91 56.59 36.06 50.42 68.21 124.2 87.88 209.36 19.66 85.17 23.1 165.57 12.8 226.7-5.16 30.56-13.75 56.28-25.45 75.37-11.7 19.09-26.48 31.5-44.02 35.56-17.55 4.05-36.28-.63-55.16-12.66-18.88-12.03-37.88-31.38-55.9-56.6-36.07-50.41-68.22-124.19-87.88-209.36-19.67-85.17-23.11-165.57-12.8-226.7 5.15-30.56 13.74-56.28 25.44-75.37 11.7-19.08 26.48-31.5 44.03-35.55Z"/>
  <path stroke="url(#aJ)" d="M277.74 33.7c17.62-3.75 36.26 1.26 54.93 13.61 18.67 12.36 37.32 32.04 54.91 57.56 35.18 51.04 66.04 125.37 84.21 210.87 18.17 85.5 20.22 165.94 8.84 226.88-5.69 30.47-14.73 56.04-26.75 74.92-12.03 18.88-27.03 31.04-44.64 34.78-17.61 3.74-36.26-1.26-54.93-13.62-18.67-12.35-37.32-32.03-54.91-57.56-35.18-51.04-66.04-125.36-84.21-210.86-18.17-85.5-20.21-165.95-8.84-226.89 5.69-30.47 14.72-56.04 26.76-74.92 12.02-18.87 27.02-31.03 44.63-34.78Z"/>
  <path stroke="url(#aK)" d="M283.15 32.6c17.68-3.44 36.23 1.9 54.68 14.57 18.45 12.68 36.76 32.68 53.9 58.5 34.28 51.65 63.84 126.5 80.52 212.31 16.68 85.8 17.31 166.28 4.88 227-6.22 30.37-15.7 55.78-28.06 74.44-12.36 18.67-27.57 30.57-45.24 34-17.68 3.44-36.23-1.9-54.68-14.57-18.45-12.68-36.76-32.69-53.9-58.51-34.28-51.65-63.84-126.5-80.52-212.3-16.67-85.81-17.31-166.28-4.87-227.01 6.21-30.37 15.7-55.77 28.05-74.44 12.36-18.67 27.57-30.56 45.24-34Z"/>
  <path stroke="url(#aL)" d="M288.58 31.59c17.73-3.13 36.2 2.53 54.42 15.52 18.22 13 36.18 33.32 52.87 59.44 33.37 52.24 61.62 127.6 76.8 213.68 15.17 86.08 14.4 166.55.91 227.06-6.75 30.25-16.67 55.49-29.35 73.94-12.68 18.44-28.1 30.07-45.83 33.2-17.73 3.12-36.19-2.53-54.41-15.53-18.23-13-36.19-33.32-52.88-59.44-33.37-52.24-61.61-127.6-76.8-213.68-15.17-86.08-14.4-166.55-.9-227.05 6.74-30.25 16.66-55.5 29.34-73.94 12.68-18.45 28.1-30.08 45.83-33.2Z"/>
  <path stroke="url(#aM)" d="M294.02 30.68c17.79-2.82 36.14 3.16 54.14 16.47 18 13.32 35.6 33.95 51.83 60.35 32.45 52.82 59.38 128.65 73.05 214.99 13.68 86.33 11.5 166.78-3.04 227.04-7.28 30.13-17.64 55.19-30.64 73.41s-28.62 29.58-46.4 32.4c-17.78 2.81-36.14-3.16-54.14-16.48-18-13.31-35.6-33.94-51.82-60.35-32.46-52.81-59.39-128.65-73.06-214.98-13.68-86.34-11.5-166.78 3.05-227.04 7.27-30.13 17.63-55.2 30.63-73.42s28.62-29.58 46.4-32.4Z"/>
  <path stroke="url(#aN)" d="M299.48 29.86c17.83-2.5 36.08 3.8 53.84 17.42 17.76 13.62 35 34.56 50.77 61.25 31.53 53.37 57.13 129.66 69.3 216.22 12.16 86.56 8.58 166.96-7.02 226.95-7.8 30-18.6 54.88-31.91 72.87-13.32 18-29.13 29.08-46.96 31.58-17.83 2.51-36.08-3.79-53.84-17.41-17.76-13.63-35-34.56-50.77-61.25-31.53-53.37-57.12-129.67-69.29-216.23-12.16-86.56-8.59-166.95 7.01-226.95 7.8-30 18.6-54.87 31.91-72.87 13.32-17.99 29.13-29.07 46.96-31.58Z"/>
  <path stroke="url(#aO)" d="M304.95 29.14c17.87-2.2 36.01 4.42 53.53 18.35 17.52 13.94 34.4 35.17 49.7 62.13 30.58 53.91 54.85 130.64 65.5 217.4 10.65 86.76 5.67 167.08-10.97 226.8-8.32 29.85-19.55 54.54-33.18 72.3-13.63 17.75-29.63 28.56-47.5 30.75-17.87 2.2-36.01-4.41-53.53-18.35-17.52-13.93-34.4-35.17-49.69-62.12-30.6-53.92-54.86-130.65-65.5-217.4-10.66-86.77-5.68-167.09 10.96-226.8 8.32-29.86 19.55-54.54 33.18-72.3 13.63-17.76 29.63-28.57 47.5-30.76Z"/>
  <path stroke="url(#aP)" d="M310.44 28.52c17.9-1.89 35.92 5.04 53.2 19.28 17.27 14.24 33.77 35.76 48.6 62.98 29.64 54.44 52.56 131.59 61.7 218.52S476.7 496.45 459 555.86c-8.84 29.71-20.5 54.2-34.44 71.72-13.93 17.51-30.12 28.04-48.02 29.92-17.91 1.88-35.93-5.05-53.2-19.28-17.28-14.24-33.78-35.77-48.6-62.99-29.65-54.44-52.57-131.58-61.7-218.51-9.15-86.93-2.77-167.15 14.92-226.57 8.84-29.7 20.5-54.19 34.44-71.71 13.93-17.52 30.12-28.04 48.03-29.92Z"/>
  <path stroke="url(#aQ)" d="M315.93 27.99c17.94-1.57 35.83 5.67 52.86 20.2 17.02 14.55 33.14 36.35 47.49 63.83 28.7 54.95 50.26 132.48 57.88 219.56 7.62 87.07-.16 167.17-18.88 226.27-9.36 29.55-21.44 53.82-35.68 71.1-14.25 17.27-30.61 27.5-48.55 29.08-17.94 1.57-35.83-5.67-52.86-20.21-17.02-14.54-33.14-36.35-47.49-63.82-28.69-54.95-50.26-132.48-57.88-219.56-7.61-87.08.16-167.18 18.88-226.27 9.36-29.55 21.44-53.83 35.69-71.1 14.24-17.27 30.6-27.51 48.54-29.08Z"/>
  <path stroke="url(#aR)" d="M321.43 27.55c17.96-1.25 35.73 6.3 52.5 21.13 16.77 14.84 32.5 36.92 46.37 64.65 27.73 55.44 47.94 133.33 54.04 220.53 6.1 87.2-3.08 167.14-22.82 225.9-9.88 29.39-22.39 53.45-36.93 70.47-14.54 17.02-31.08 26.98-49.04 28.23-17.96 1.26-35.73-6.3-52.5-21.13-16.76-14.83-32.5-36.92-46.37-64.64-27.73-55.44-47.94-133.33-54.04-220.53-6.1-87.2 3.08-167.15 22.83-225.91 9.87-29.38 22.38-53.44 36.92-70.47 14.54-17.02 31.08-26.97 49.04-28.23Z"/>
  <path stroke="url(#aS)" d="M326.94 27.22c17.98-.95 35.61 6.92 52.12 22.04 16.5 15.12 31.85 37.48 45.23 65.44 26.76 55.92 45.61 134.15 50.19 221.44 4.57 87.3-6 167.07-26.76 225.48-10.39 29.2-23.32 53.04-38.15 69.8-14.83 16.77-31.55 26.44-49.53 27.38-17.98.94-35.61-6.92-52.12-22.04-16.5-15.13-31.85-37.49-45.23-65.44-26.76-55.92-45.61-134.16-50.19-221.45-4.57-87.29 6-167.06 26.77-225.47 10.38-29.2 23.3-53.05 38.14-69.81 14.83-16.77 31.55-26.43 49.53-27.37Z"/>
  <path stroke="url(#aT)" d="M332.45 26.98c18-.63 35.5 7.54 51.73 22.94 16.24 15.41 31.2 38.04 44.09 66.22 25.78 56.38 43.26 134.93 46.3 222.29 3.06 87.36-8.9 166.94-30.69 224.97-10.89 29.02-24.23 52.63-39.35 69.14-15.13 16.5-32 25.87-50 26.5-18 .63-35.5-7.54-51.73-22.95-16.24-15.4-31.2-38.03-44.08-66.22-25.78-56.38-43.27-134.93-46.32-222.28-3.05-87.36 8.91-166.94 30.7-224.98 10.89-29.02 24.23-52.63 39.35-69.13 15.13-16.5 32.01-25.88 50-26.5Z"/>
  <path stroke="url(#aU)" d="M337.97 26.83c18-.31 35.35 8.16 51.32 23.85 15.97 15.69 30.53 38.57 42.92 66.98 24.8 56.82 40.9 135.66 42.43 223.06 1.52 87.4-11.82 166.75-34.62 224.4-11.4 28.83-25.14 52.2-40.56 68.44-15.4 16.24-32.45 25.3-50.45 25.62-18 .32-35.35-8.16-51.32-23.84-15.97-15.7-30.52-38.57-42.92-66.98-24.8-56.82-40.9-135.67-42.43-223.06-1.52-87.4 11.83-166.76 34.62-224.4 11.4-28.83 25.15-52.2 40.56-68.44 15.4-16.24 32.45-25.31 50.45-25.63Z"/>
  <path stroke="url(#aV)" d="M343.5 26.78c18 0 35.2 8.78 50.88 24.74 15.7 15.97 29.85 39.1 41.75 67.72 23.8 57.24 38.53 136.36 38.53 223.77 0 87.4-14.73 166.52-38.53 223.76-11.9 28.63-26.05 51.75-41.75 67.72-15.69 15.97-32.88 24.74-50.89 24.74-18 0-35.2-8.77-50.9-24.74-15.69-15.97-29.84-39.1-41.74-67.72-23.8-57.24-38.53-136.35-38.53-223.76s14.73-166.53 38.53-223.77c11.9-28.62 26.05-51.75 41.75-67.72 15.69-15.96 32.89-24.74 50.9-24.74Z"/>
  <defs>
    <linearGradient id="a" x1="356.16" x2="331.66" y1="418.79" y2="264.1" gradientUnits="userSpaceOnUse">
      <stop stop-color="#FF1CF7"/>
      <stop offset="1" stop-color="#00F0FF"/>
    </linearGradient>
    <linearGradient id="b" x1="354.83" x2="333.04" y1="419" y2="263.9" gradientUnits="userSpaceOnUse">
      <stop stop-color="#FF1CF7"/>
      <stop offset="1" stop-color="#00F0FF"/>
    </linearGradient>
    <linearGradient id="c" x1="353.5" x2="334.42" y1="419.18" y2="263.73" gradientUnits="userSpaceOnUse">
      <stop stop-color="#FF1CF7"/>
      <stop offset="1" stop-color="#00F0FF"/>
    </linearGradient>
    <linearGradient id="d" x1="352.17" x2="335.8" y1="419.35" y2="263.59" gradientUnits="userSpaceOnUse">
      <stop stop-color="#FF1CF7"/>
      <stop offset="1" stop-color="#00F0FF"/>
    </linearGradient>
    <linearGradient id="e" x1="350.84" x2="337.19" y1="419.49" y2="263.46" gradientUnits="userSpaceOnUse">
      <stop stop-color="#FF1CF7"/>
      <stop offset="1" stop-color="#00F0FF"/>
    </linearGradient>
    <linearGradient id="f" x1="349.5" x2="338.58" y1="419.6" y2="263.37" gradientUnits="userSpaceOnUse">
      <stop stop-color="#FF1CF7"/>
      <stop offset="1" stop-color="#00F0FF"/>
    </linearGradient>
    <linearGradient id="g" x1="348.17" x2="339.97" y1="419.69" y2="263.29" gradientUnits="userSpaceOnUse">
      <stop stop-color="#FF1CF7"/>
      <stop offset="1" stop-color="#00F0FF"/>
    </linearGradient>
    <linearGradient id="h" x1="346.83" x2="341.36" y1="419.76" y2="263.24" gradientUnits="userSpaceOnUse">
      <stop stop-color="#FF1CF7"/>
      <stop offset="1" stop-color="#00F0FF"/>
    </linearGradient>
    <linearGradient id="i" x1="345.49" x2="342.75" y1="419.81" y2="263.22" gradientUnits="userSpaceOnUse">
      <stop stop-color="#FF1CF7"/>
      <stop offset="1" stop-color="#00F0FF"/>
    </linearGradient>
    <linearGradient id="j" x1="344.15" x2="344.15" y1="419.83" y2="263.22" gradientUnits="userSpaceOnUse">
      <stop stop-color="#FF1CF7"/>
      <stop offset="1" stop-color="#00F0FF"/>
    </linearGradient>
    <linearGradient id="k" x1="342.81" x2="345.54" y1="419.83" y2="263.24" gradientUnits="userSpaceOnUse">
      <stop stop-color="#FF1CF7"/>
      <stop offset="1" stop-color="#00F0FF"/>
    </linearGradient>
    <linearGradient id="l" x1="341.46" x2="346.93" y1="419.81" y2="263.29" gradientUnits="userSpaceOnUse">
      <stop stop-color="#FF1CF7"/>
      <stop offset="1" stop-color="#00F0FF"/>
    </linearGradient>
    <linearGradient id="m" x1="340.13" x2="348.32" y1="419.76" y2="263.36" gradientUnits="userSpaceOnUse">
      <stop stop-color="#FF1CF7"/>
      <stop offset="1" stop-color="#00F0FF"/>
    </linearGradient>
    <linearGradient id="n" x1="338.79" x2="349.71" y1="419.69" y2="263.46" gradientUnits="userSpaceOnUse">
      <stop stop-color="#FF1CF7"/>
      <stop offset="1" stop-color="#00F0FF"/>
    </linearGradient>
    <linearGradient id="o" x1="337.45" x2="351.1" y1="419.6" y2="263.58" gradientUnits="userSpaceOnUse">
      <stop stop-color="#FF1CF7"/>
      <stop offset="1" stop-color="#00F0FF"/>
    </linearGradient>
    <linearGradient id="p" x1="336.11" x2="352.48" y1="419.48" y2="263.72" gradientUnits="userSpaceOnUse">
      <stop stop-color="#FF1CF7"/>
      <stop offset="1" stop-color="#00F0FF"/>
    </linearGradient>
    <linearGradient id="q" x1="334.78" x2="353.87" y1="419.34" y2="263.89" gradientUnits="userSpaceOnUse">
      <stop stop-color="#FF1CF7"/>
      <stop offset="1" stop-color="#00F0FF"/>
    </linearGradient>
    <linearGradient id="r" x1="333.45" x2="355.25" y1="419.18" y2="264.08" gradientUnits="userSpaceOnUse">
      <stop stop-color="#FF1CF7"/>
      <stop offset="1" stop-color="#00F0FF"/>
    </linearGradient>
    <linearGradient id="s" x1="332.12" x2="356.62" y1="418.99" y2="264.3" gradientUnits="userSpaceOnUse">
      <stop stop-color="#FF1CF7"/>
      <stop offset="1" stop-color="#00F0FF"/>
    </linearGradient>
    <linearGradient id="t" x1="330.8" x2="357.99" y1="418.78" y2="264.54" gradientUnits="userSpaceOnUse">
      <stop stop-color="#FF1CF7"/>
      <stop offset="1" stop-color="#00F0FF"/>
    </linearGradient>
    <linearGradient id="u" x1="329.48" x2="359.36" y1="418.55" y2="264.81" gradientUnits="userSpaceOnUse">
      <stop stop-color="#FF1CF7"/>
      <stop offset="1" stop-color="#00F0FF"/>
    </linearGradient>
    <linearGradient id="v" x1="328.16" x2="360.72" y1="418.29" y2="265.1" gradientUnits="userSpaceOnUse">
      <stop stop-color="#FF1CF7"/>
      <stop offset="1" stop-color="#00F0FF"/>
    </linearGradient>
    <linearGradient id="w" x1="326.85" x2="362.08" y1="418.01" y2="265.41" gradientUnits="userSpaceOnUse">
      <stop stop-color="#FF1CF7"/>
      <stop offset="1" stop-color="#00F0FF"/>
    </linearGradient>
    <linearGradient id="x" x1="325.54" x2="363.43" y1="417.71" y2="265.75" gradientUnits="userSpaceOnUse">
      <stop stop-color="#FF1CF7"/>
      <stop offset="1" stop-color="#00F0FF"/>
    </linearGradient>
    <linearGradient id="y" x1="324.24" x2="364.77" y1="417.39" y2="266.11" gradientUnits="userSpaceOnUse">
      <stop stop-color="#FF1CF7"/>
      <stop offset="1" stop-color="#00F0FF"/>
    </linearGradient>
    <linearGradient id="z" x1="322.94" x2="366.11" y1="417.04" y2="266.49" gradientUnits="userSpaceOnUse">
      <stop stop-color="#FF1CF7"/>
      <stop offset="1" stop-color="#00F0FF"/>
    </linearGradient>
    <linearGradient id="A" x1="321.66" x2="367.45" y1="416.67" y2="266.89" gradientUnits="userSpaceOnUse">
      <stop stop-color="#FF1CF7"/>
      <stop offset="1" stop-color="#00F0FF"/>
    </linearGradient>
    <linearGradient id="B" x1="320.37" x2="368.77" y1="416.28" y2="267.32" gradientUnits="userSpaceOnUse">
      <stop stop-color="#FF1CF7"/>
      <stop offset="1" stop-color="#00F0FF"/>
    </linearGradient>
    <linearGradient id="C" x1="319.1" x2="370.09" y1="415.86" y2="267.78" gradientUnits="userSpaceOnUse">
      <stop stop-color="#FF1CF7"/>
      <stop offset="1" stop-color="#00F0FF"/>
    </linearGradient>
    <linearGradient id="D" x1="317.83" x2="371.4" y1="415.43" y2="268.25" gradientUnits="userSpaceOnUse">
      <stop stop-color="#FF1CF7"/>
      <stop offset="1" stop-color="#00F0FF"/>
    </linearGradient>
    <linearGradient id="E" x1="316.57" x2="372.7" y1="414.97" y2="268.75" gradientUnits="userSpaceOnUse">
      <stop stop-color="#FF1CF7"/>
      <stop offset="1" stop-color="#00F0FF"/>
    </linearGradient>
    <linearGradient id="F" x1="315.32" x2="373.99" y1="414.49" y2="269.27" gradientUnits="userSpaceOnUse">
      <stop stop-color="#FF1CF7"/>
      <stop offset="1" stop-color="#00F0FF"/>
    </linearGradient>
    <linearGradient id="G" x1="314.08" x2="375.27" y1="413.98" y2="269.82" gradientUnits="userSpaceOnUse">
      <stop stop-color="#FF1CF7"/>
      <stop offset="1" stop-color="#00F0FF"/>
    </linearGradient>
    <linearGradient id="H" x1="312.84" x2="376.54" y1="413.46" y2="270.38" gradientUnits="userSpaceOnUse">
      <stop stop-color="#FF1CF7"/>
      <stop offset="1" stop-color="#00F0FF"/>
    </linearGradient>
    <linearGradient id="I" x1="311.62" x2="377.81" y1="412.91" y2="270.97" gradientUnits="userSpaceOnUse">
      <stop stop-color="#FF1CF7"/>
      <stop offset="1" stop-color="#00F0FF"/>
    </linearGradient>
    <linearGradient id="J" x1="310.4" x2="379.06" y1="412.35" y2="271.58" gradientUnits="userSpaceOnUse">
      <stop stop-color="#FF1CF7"/>
      <stop offset="1" stop-color="#00F0FF"/>
    </linearGradient>
    <linearGradient id="K" x1="309.2" x2="380.3" y1="411.76" y2="272.21" gradientUnits="userSpaceOnUse">
      <stop stop-color="#FF1CF7"/>
      <stop offset="1" stop-color="#00F0FF"/>
    </linearGradient>
    <linearGradient id="L" x1="308" x2="381.53" y1="411.15" y2="272.86" gradientUnits="userSpaceOnUse">
      <stop stop-color="#FF1CF7"/>
      <stop offset="1" stop-color="#00F0FF"/>
    </linearGradient>
    <linearGradient id="M" x1="306.82" x2="382.75" y1="410.52" y2="273.54" gradientUnits="userSpaceOnUse">
      <stop stop-color="#FF1CF7"/>
      <stop offset="1" stop-color="#00F0FF"/>
    </linearGradient>
    <linearGradient id="N" x1="305.64" x2="383.95" y1="409.87" y2="274.24" gradientUnits="userSpaceOnUse">
      <stop stop-color="#FF1CF7"/>
      <stop offset="1" stop-color="#00F0FF"/>
    </linearGradient>
    <linearGradient id="O" x1="304.48" x2="385.15" y1="409.2" y2="274.95" gradientUnits="userSpaceOnUse">
      <stop stop-color="#FF1CF7"/>
      <stop offset="1" stop-color="#00F0FF"/>
    </linearGradient>
    <linearGradient id="P" x1="303.33" x2="386.33" y1="408.51" y2="275.69" gradientUnits="userSpaceOnUse">
      <stop stop-color="#FF1CF7"/>
      <stop offset="1" stop-color="#00F0FF"/>
    </linearGradient>
    <linearGradient id="Q" x1="302.2" x2="387.5" y1="407.8" y2="276.45" gradientUnits="userSpaceOnUse">
      <stop stop-color="#FF1CF7"/>
      <stop offset="1" stop-color="#00F0FF"/>
    </linearGradient>
    <linearGradient id="R" x1="301.07" x2="388.65" y1="407.07" y2="277.22" gradientUnits="userSpaceOnUse">
      <stop stop-color="#FF1CF7"/>
      <stop offset="1" stop-color="#00F0FF"/>
    </linearGradient>
    <linearGradient id="S" x1="299.96" x2="389.79" y1="406.32" y2="278.02" gradientUnits="userSpaceOnUse">
      <stop stop-color="#FF1CF7"/>
      <stop offset="1" stop-color="#00F0FF"/>
    </linearGradient>
    <linearGradient id="T" x1="298.86" x2="390.92" y1="405.55" y2="278.84" gradientUnits="userSpaceOnUse">
      <stop stop-color="#FF1CF7"/>
      <stop offset="1" stop-color="#00F0FF"/>
    </linearGradient>
    <linearGradient id="U" x1="297.78" x2="392.03" y1="404.76" y2="279.68" gradientUnits="userSpaceOnUse">
      <stop stop-color="#FF1CF7"/>
      <stop offset="1" stop-color="#00F0FF"/>
    </linearGradient>
    <linearGradient id="V" x1="296.71" x2="393.13" y1="403.95" y2="280.54" gradientUnits="userSpaceOnUse">
      <stop stop-color="#FF1CF7"/>
      <stop offset="1" stop-color="#00F0FF"/>
    </linearGradient>
    <linearGradient id="W" x1="295.65" x2="394.21" y1="403.13" y2="281.41" gradientUnits="userSpaceOnUse">
      <stop stop-color="#FF1CF7"/>
      <stop offset="1" stop-color="#00F0FF"/>
    </linearGradient>
    <linearGradient id="X" x1="294.61" x2="395.28" y1="402.28" y2="282.31" gradientUnits="userSpaceOnUse">
      <stop stop-color="#FF1CF7"/>
      <stop offset="1" stop-color="#00F0FF"/>
    </linearGradient>
    <linearGradient id="Y" x1="293.58" x2="396.33" y1="401.42" y2="283.22" gradientUnits="userSpaceOnUse">
      <stop stop-color="#FF1CF7"/>
      <stop offset="1" stop-color="#00F0FF"/>
    </linearGradient>
    <linearGradient id="Z" x1="292.57" x2="397.37" y1="400.54" y2="284.15" gradientUnits="userSpaceOnUse">
      <stop stop-color="#FF1CF7"/>
      <stop offset="1" stop-color="#00F0FF"/>
    </linearGradient>
    <linearGradient id="aa" x1="291.57" x2="398.39" y1="399.64" y2="285.1" gradientUnits="userSpaceOnUse">
      <stop stop-color="#FF1CF7"/>
      <stop offset="1" stop-color="#00F0FF"/>
    </linearGradient>
    <linearGradient id="ab" x1="290.59" x2="399.39" y1="398.73" y2="286.07" gradientUnits="userSpaceOnUse">
      <stop stop-color="#FF1CF7"/>
      <stop offset="1" stop-color="#00F0FF"/>
    </linearGradient>
    <linearGradient id="ac" x1="289.63" x2="400.38" y1="397.8" y2="287.05" gradientUnits="userSpaceOnUse">
      <stop stop-color="#FF1CF7"/>
      <stop offset="1" stop-color="#00F0FF"/>
    </linearGradient>
    <linearGradient id="ad" x1="288.68" x2="401.34" y1="396.85" y2="288.05" gradientUnits="userSpaceOnUse">
      <stop stop-color="#FF1CF7"/>
      <stop offset="1" stop-color="#00F0FF"/>
    </linearGradient>
    <linearGradient id="ae" x1="287.75" x2="402.29" y1="395.88" y2="289.07" gradientUnits="userSpaceOnUse">
      <stop stop-color="#FF1CF7"/>
      <stop offset="1" stop-color="#00F0FF"/>
    </linearGradient>
    <linearGradient id="af" x1="286.84" x2="403.23" y1="394.9" y2="290.1" gradientUnits="userSpaceOnUse">
      <stop stop-color="#FF1CF7"/>
      <stop offset="1" stop-color="#00F0FF"/>
    </linearGradient>
    <linearGradient id="ag" x1="285.94" x2="404.14" y1="393.9" y2="291.15" gradientUnits="userSpaceOnUse">
      <stop stop-color="#FF1CF7"/>
      <stop offset="1" stop-color="#00F0FF"/>
    </linearGradient>
    <linearGradient id="ah" x1="285.06" x2="405.04" y1="392.89" y2="292.22" gradientUnits="userSpaceOnUse">
      <stop stop-color="#FF1CF7"/>
      <stop offset="1" stop-color="#00F0FF"/>
    </linearGradient>
    <linearGradient id="ai" x1="284.2" x2="405.91" y1="391.87" y2="293.3" gradientUnits="userSpaceOnUse">
      <stop stop-color="#FF1CF7"/>
      <stop offset="1" stop-color="#00F0FF"/>
    </linearGradient>
    <linearGradient id="aj" x1="283.35" x2="406.77" y1="390.82" y2="294.4" gradientUnits="userSpaceOnUse">
      <stop stop-color="#FF1CF7"/>
      <stop offset="1" stop-color="#00F0FF"/>
    </linearGradient>
    <linearGradient id="ak" x1="282.53" x2="407.61" y1="389.77" y2="295.51" gradientUnits="userSpaceOnUse">
      <stop stop-color="#FF1CF7"/>
      <stop offset="1" stop-color="#00F0FF"/>
    </linearGradient>
    <linearGradient id="al" x1="281.72" x2="408.43" y1="388.7" y2="296.64" gradientUnits="userSpaceOnUse">
      <stop stop-color="#FF1CF7"/>
      <stop offset="1" stop-color="#00F0FF"/>
    </linearGradient>
    <linearGradient id="am" x1="280.93" x2="409.23" y1="387.61" y2="297.78" gradientUnits="userSpaceOnUse">
      <stop stop-color="#FF1CF7"/>
      <stop offset="1" stop-color="#00F0FF"/>
    </linearGradient>
    <linearGradient id="an" x1="280.17" x2="410.01" y1="386.51" y2="298.93" gradientUnits="userSpaceOnUse">
      <stop stop-color="#FF1CF7"/>
      <stop offset="1" stop-color="#00F0FF"/>
    </linearGradient>
    <linearGradient id="ao" x1="279.42" x2="410.77" y1="385.4" y2="300.1" gradientUnits="userSpaceOnUse">
      <stop stop-color="#FF1CF7"/>
      <stop offset="1" stop-color="#00F0FF"/>
    </linearGradient>
    <linearGradient id="ap" x1="278.69" x2="411.5" y1="384.27" y2="301.28" gradientUnits="userSpaceOnUse">
      <stop stop-color="#FF1CF7"/>
      <stop offset="1" stop-color="#00F0FF"/>
    </linearGradient>
    <linearGradient id="aq" x1="277.98" x2="412.22" y1="383.14" y2="302.48" gradientUnits="userSpaceOnUse">
      <stop stop-color="#FF1CF7"/>
      <stop offset="1" stop-color="#00F0FF"/>
    </linearGradient>
    <linearGradient id="ar" x1="277.29" x2="412.92" y1="381.99" y2="303.68" gradientUnits="userSpaceOnUse">
      <stop stop-color="#FF1CF7"/>
      <stop offset="1" stop-color="#00F0FF"/>
    </linearGradient>
    <linearGradient id="as" x1="276.62" x2="413.6" y1="380.83" y2="304.9" gradientUnits="userSpaceOnUse">
      <stop stop-color="#FF1CF7"/>
      <stop offset="1" stop-color="#00F0FF"/>
    </linearGradient>
    <linearGradient id="at" x1="275.96" x2="414.25" y1="379.65" y2="306.13" gradientUnits="userSpaceOnUse">
      <stop stop-color="#FF1CF7"/>
      <stop offset="1" stop-color="#00F0FF"/>
    </linearGradient>
    <linearGradient id="au" x1="275.34" x2="414.88" y1="378.47" y2="307.37" gradientUnits="userSpaceOnUse">
      <stop stop-color="#FF1CF7"/>
      <stop offset="1" stop-color="#00F0FF"/>
    </linearGradient>
    <linearGradient id="av" x1="274.73" x2="415.49" y1="377.27" y2="308.62" gradientUnits="userSpaceOnUse">
      <stop stop-color="#FF1CF7"/>
      <stop offset="1" stop-color="#00F0FF"/>
    </linearGradient>
    <linearGradient id="aw" x1="274.14" x2="416.08" y1="376.07" y2="309.88" gradientUnits="userSpaceOnUse">
      <stop stop-color="#FF1CF7"/>
      <stop offset="1" stop-color="#00F0FF"/>
    </linearGradient>
    <linearGradient id="ax" x1="273.57" x2="416.65" y1="374.86" y2="311.15" gradientUnits="userSpaceOnUse">
      <stop stop-color="#FF1CF7"/>
      <stop offset="1" stop-color="#00F0FF"/>
    </linearGradient>
    <linearGradient id="ay" x1="273.03" x2="417.19" y1="373.63" y2="312.43" gradientUnits="userSpaceOnUse">
      <stop stop-color="#FF1CF7"/>
      <stop offset="1" stop-color="#00F0FF"/>
    </linearGradient>
    <linearGradient id="az" x1="272.5" x2="417.72" y1="372.4" y2="313.73" gradientUnits="userSpaceOnUse">
      <stop stop-color="#FF1CF7"/>
      <stop offset="1" stop-color="#00F0FF"/>
    </linearGradient>
    <linearGradient id="aA" x1="272" x2="418.22" y1="371.15" y2="315.02" gradientUnits="userSpaceOnUse">
      <stop stop-color="#FF1CF7"/>
      <stop offset="1" stop-color="#00F0FF"/>
    </linearGradient>
    <linearGradient id="aB" x1="271.52" x2="418.69" y1="369.9" y2="316.33" gradientUnits="userSpaceOnUse">
      <stop stop-color="#FF1CF7"/>
      <stop offset="1" stop-color="#00F0FF"/>
    </linearGradient>
    <linearGradient id="aC" x1="271.06" x2="419.15" y1="368.64" y2="317.65" gradientUnits="userSpaceOnUse">
      <stop stop-color="#FF1CF7"/>
      <stop offset="1" stop-color="#00F0FF"/>
    </linearGradient>
    <linearGradient id="aD" x1="270.63" x2="419.58" y1="367.37" y2="318.98" gradientUnits="userSpaceOnUse">
      <stop stop-color="#FF1CF7"/>
      <stop offset="1" stop-color="#00F0FF"/>
    </linearGradient>
    <linearGradient id="aE" x1="270.21" x2="419.99" y1="366.1" y2="320.31" gradientUnits="userSpaceOnUse">
      <stop stop-color="#FF1CF7"/>
      <stop offset="1" stop-color="#00F0FF"/>
    </linearGradient>
    <linearGradient id="aF" x1="269.82" x2="420.37" y1="364.81" y2="321.64" gradientUnits="userSpaceOnUse">
      <stop stop-color="#FF1CF7"/>
      <stop offset="1" stop-color="#00F0FF"/>
    </linearGradient>
    <linearGradient id="aG" x1="269.45" x2="420.73" y1="363.52" y2="322.99" gradientUnits="userSpaceOnUse">
      <stop stop-color="#FF1CF7"/>
      <stop offset="1" stop-color="#00F0FF"/>
    </linearGradient>
    <linearGradient id="aH" x1="269.11" x2="421.07" y1="362.23" y2="324.34" gradientUnits="userSpaceOnUse">
      <stop stop-color="#FF1CF7"/>
      <stop offset="1" stop-color="#00F0FF"/>
    </linearGradient>
    <linearGradient id="aI" x1="268.78" x2="421.38" y1="360.93" y2="325.7" gradientUnits="userSpaceOnUse">
      <stop stop-color="#FF1CF7"/>
      <stop offset="1" stop-color="#00F0FF"/>
    </linearGradient>
    <linearGradient id="aJ" x1="268.48" x2="421.67" y1="359.62" y2="327.06" gradientUnits="userSpaceOnUse">
      <stop stop-color="#FF1CF7"/>
      <stop offset="1" stop-color="#00F0FF"/>
    </linearGradient>
    <linearGradient id="aK" x1="268.2" x2="421.94" y1="358.31" y2="328.43" gradientUnits="userSpaceOnUse">
      <stop stop-color="#FF1CF7"/>
      <stop offset="1" stop-color="#00F0FF"/>
    </linearGradient>
    <linearGradient id="aL" x1="267.94" x2="422.18" y1="356.99" y2="329.8" gradientUnits="userSpaceOnUse">
      <stop stop-color="#FF1CF7"/>
      <stop offset="1" stop-color="#00F0FF"/>
    </linearGradient>
    <linearGradient id="aM" x1="267.71" x2="422.4" y1="355.67" y2="331.17" gradientUnits="userSpaceOnUse">
      <stop stop-color="#FF1CF7"/>
      <stop offset="1" stop-color="#00F0FF"/>
    </linearGradient>
    <linearGradient id="aN" x1="267.5" x2="422.6" y1="354.35" y2="332.55" gradientUnits="userSpaceOnUse">
      <stop stop-color="#FF1CF7"/>
      <stop offset="1" stop-color="#00F0FF"/>
    </linearGradient>
    <linearGradient id="aO" x1="267.32" x2="422.77" y1="353.02" y2="333.93" gradientUnits="userSpaceOnUse">
      <stop stop-color="#FF1CF7"/>
      <stop offset="1" stop-color="#00F0FF"/>
    </linearGradient>
    <linearGradient id="aP" x1="267.15" x2="422.91" y1="351.69" y2="335.32" gradientUnits="userSpaceOnUse">
      <stop stop-color="#FF1CF7"/>
      <stop offset="1" stop-color="#00F0FF"/>
    </linearGradient>
    <linearGradient id="aQ" x1="267.01" x2="423.04" y1="350.36" y2="336.71" gradientUnits="userSpaceOnUse">
      <stop stop-color="#FF1CF7"/>
      <stop offset="1" stop-color="#00F0FF"/>
    </linearGradient>
    <linearGradient id="aR" x1="266.9" x2="423.13" y1="349.02" y2="338.1" gradientUnits="userSpaceOnUse">
      <stop stop-color="#FF1CF7"/>
      <stop offset="1" stop-color="#00F0FF"/>
    </linearGradient>
    <linearGradient id="aS" x1="266.8" x2="423.21" y1="347.68" y2="339.49" gradientUnits="userSpaceOnUse">
      <stop stop-color="#FF1CF7"/>
      <stop offset="1" stop-color="#00F0FF"/>
    </linearGradient>
    <linearGradient id="aT" x1="266.73" x2="423.25" y1="346.34" y2="340.88" gradientUnits="userSpaceOnUse">
      <stop stop-color="#FF1CF7"/>
      <stop offset="1" stop-color="#00F0FF"/>
    </linearGradient>
    <linearGradient id="aU" x1="266.69" x2="423.28" y1="345" y2="342.27" gradientUnits="userSpaceOnUse">
      <stop stop-color="#FF1CF7"/>
      <stop offset="1" stop-color="#00F0FF"/>
    </linearGradient>
    <linearGradient id="aV" x1="266.66" x2="423.28" y1="343.66" y2="343.66" gradientUnits="userSpaceOnUse">
      <stop stop-color="#FF1CF7"/>
      <stop offset="1" stop-color="#00F0FF"/>
    </linearGradient>
  </defs>
</svg>
